<?xml version="1.0" encoding="UTF-8" standalone="no"?>
<!DOCTYPE svg PUBLIC "-//W3C//DTD SVG 1.1//EN"
 "http://www.w3.org/Graphics/SVG/1.1/DTD/svg11.dtd">
<!-- Generated by graphviz version 2.40.1 (20161225.0304)
 -->
<!-- Title: public.features_202406 Pages: 1 -->
<svg width="655pt" height="1552pt"
 viewBox="0.00 0.00 655.00 1552.00" xmlns="http://www.w3.org/2000/svg" xmlns:xlink="http://www.w3.org/1999/xlink">
<g id="graph0" class="graph" transform="scale(1 1) rotate(0) translate(4 1548)">
<title>public.features_202406</title>
<polygon fill="#ffffff" stroke="transparent" points="-4,4 -4,-1548 651,-1548 651,4 -4,4"/>
<!-- public.features_202406 -->
<g id="node1" class="node">
<title>public.features_202406</title>
<polygon fill="#efefef" stroke="transparent" points="273,-1462.5 273,-1497.5 601,-1497.5 601,-1462.5 273,-1462.5"/>
<polygon fill="none" stroke="#000000" points="273,-1462.5 273,-1497.5 601,-1497.5 601,-1462.5 273,-1462.5"/>
<text text-anchor="start" x="279.679" y="-1475.3" font-family="Arial Bold" font-size="18.00" fill="#000000">public.features_202406</text>
<text text-anchor="start" x="466.753" y="-1475.3" font-family="Arial" font-size="14.00" fill="#000000">    </text>
<text text-anchor="start" x="500.9578" y="-1475.3" font-family="Arial" font-size="14.00" fill="#666666">[BASE TABLE]</text>
<polygon fill="none" stroke="#000000" points="273,-1432.5 273,-1462.5 601,-1462.5 601,-1432.5 273,-1432.5"/>
<text text-anchor="start" x="280" y="-1443.9" font-family="Arial" font-size="14.00" fill="#000000">instrument </text>
<text text-anchor="start" x="349.23" y="-1443.9" font-family="Arial" font-size="14.00" fill="#666666">[bigint]</text>
<polygon fill="none" stroke="#000000" points="273,-1402.5 273,-1432.5 601,-1432.5 601,-1402.5 273,-1402.5"/>
<text text-anchor="start" x="280" y="-1413.9" font-family="Arial" font-size="14.00" fill="#000000">vpin </text>
<text text-anchor="start" x="309.5624" y="-1413.9" font-family="Arial" font-size="14.00" fill="#666666">[bigint]</text>
<polygon fill="none" stroke="#000000" points="273,-1372.5 273,-1402.5 601,-1402.5 601,-1372.5 273,-1372.5"/>
<text text-anchor="start" x="280" y="-1383.9" font-family="Arial" font-size="14.00" fill="#000000">epoch </text>
<text text-anchor="start" x="322.021" y="-1383.9" font-family="Arial" font-size="14.00" fill="#666666">[timestamp without time zone]</text>
<polygon fill="none" stroke="#000000" points="273,-1342.5 273,-1372.5 601,-1372.5 601,-1342.5 273,-1342.5"/>
<text text-anchor="start" x="280" y="-1353.9" font-family="Arial" font-size="14.00" fill="#000000">volume </text>
<text text-anchor="start" x="329.0056" y="-1353.9" font-family="Arial" font-size="14.00" fill="#666666">[numeric]</text>
<polygon fill="none" stroke="#000000" points="273,-1312.5 273,-1342.5 601,-1342.5 601,-1312.5 273,-1312.5"/>
<text text-anchor="start" x="280" y="-1323.9" font-family="Arial" font-size="14.00" fill="#000000">number </text>
<text text-anchor="start" x="331.3422" y="-1323.9" font-family="Arial" font-size="14.00" fill="#666666">[numeric]</text>
<polygon fill="none" stroke="#000000" points="273,-1282.5 273,-1312.5 601,-1312.5 601,-1282.5 273,-1282.5"/>
<text text-anchor="start" x="280" y="-1293.9" font-family="Arial" font-size="14.00" fill="#000000">imf_imf_0 </text>
<text text-anchor="start" x="344.554" y="-1293.9" font-family="Arial" font-size="14.00" fill="#666666">[numeric]</text>
<polygon fill="none" stroke="#000000" points="273,-1252.5 273,-1282.5 601,-1282.5 601,-1252.5 273,-1252.5"/>
<text text-anchor="start" x="280" y="-1263.9" font-family="Arial" font-size="14.00" fill="#000000">imf_imf_1 </text>
<text text-anchor="start" x="344.554" y="-1263.9" font-family="Arial" font-size="14.00" fill="#666666">[numeric]</text>
<polygon fill="none" stroke="#000000" points="273,-1222.5 273,-1252.5 601,-1252.5 601,-1222.5 273,-1222.5"/>
<text text-anchor="start" x="280" y="-1233.9" font-family="Arial" font-size="14.00" fill="#000000">imf_imf_2 </text>
<text text-anchor="start" x="344.554" y="-1233.9" font-family="Arial" font-size="14.00" fill="#666666">[numeric]</text>
<polygon fill="none" stroke="#000000" points="273,-1192.5 273,-1222.5 601,-1222.5 601,-1192.5 273,-1192.5"/>
<text text-anchor="start" x="280" y="-1203.9" font-family="Arial" font-size="14.00" fill="#000000">imf_imf_3 </text>
<text text-anchor="start" x="344.554" y="-1203.9" font-family="Arial" font-size="14.00" fill="#666666">[numeric]</text>
<polygon fill="none" stroke="#000000" points="273,-1162.5 273,-1192.5 601,-1192.5 601,-1162.5 273,-1162.5"/>
<text text-anchor="start" x="280" y="-1173.9" font-family="Arial" font-size="14.00" fill="#000000">imf_imf_4 </text>
<text text-anchor="start" x="344.554" y="-1173.9" font-family="Arial" font-size="14.00" fill="#666666">[numeric]</text>
<polygon fill="none" stroke="#000000" points="273,-1132.5 273,-1162.5 601,-1162.5 601,-1132.5 273,-1132.5"/>
<text text-anchor="start" x="280" y="-1143.9" font-family="Arial" font-size="14.00" fill="#000000">imf_imf_5 </text>
<text text-anchor="start" x="344.554" y="-1143.9" font-family="Arial" font-size="14.00" fill="#666666">[numeric]</text>
<polygon fill="none" stroke="#000000" points="273,-1102.5 273,-1132.5 601,-1132.5 601,-1102.5 273,-1102.5"/>
<text text-anchor="start" x="280" y="-1113.9" font-family="Arial" font-size="14.00" fill="#000000">imf_imf_6 </text>
<text text-anchor="start" x="344.554" y="-1113.9" font-family="Arial" font-size="14.00" fill="#666666">[numeric]</text>
<polygon fill="none" stroke="#000000" points="273,-1072.5 273,-1102.5 601,-1102.5 601,-1072.5 273,-1072.5"/>
<text text-anchor="start" x="280" y="-1083.9" font-family="Arial" font-size="14.00" fill="#000000">imf_imf_7 </text>
<text text-anchor="start" x="344.554" y="-1083.9" font-family="Arial" font-size="14.00" fill="#666666">[numeric]</text>
<polygon fill="none" stroke="#000000" points="273,-1042.5 273,-1072.5 601,-1072.5 601,-1042.5 273,-1042.5"/>
<text text-anchor="start" x="280" y="-1053.9" font-family="Arial" font-size="14.00" fill="#000000">imf_imf_8 </text>
<text text-anchor="start" x="344.554" y="-1053.9" font-family="Arial" font-size="14.00" fill="#666666">[numeric]</text>
<polygon fill="none" stroke="#000000" points="273,-1012.5 273,-1042.5 601,-1042.5 601,-1012.5 273,-1012.5"/>
<text text-anchor="start" x="280" y="-1023.9" font-family="Arial" font-size="14.00" fill="#000000">imf_ia_0 </text>
<text text-anchor="start" x="336.7854" y="-1023.9" font-family="Arial" font-size="14.00" fill="#666666">[numeric]</text>
<polygon fill="none" stroke="#000000" points="273,-982.5 273,-1012.5 601,-1012.5 601,-982.5 273,-982.5"/>
<text text-anchor="start" x="280" y="-993.9" font-family="Arial" font-size="14.00" fill="#000000">imf_ia_1 </text>
<text text-anchor="start" x="336.7854" y="-993.9" font-family="Arial" font-size="14.00" fill="#666666">[numeric]</text>
<polygon fill="none" stroke="#000000" points="273,-952.5 273,-982.5 601,-982.5 601,-952.5 273,-952.5"/>
<text text-anchor="start" x="280" y="-963.9" font-family="Arial" font-size="14.00" fill="#000000">imf_ia_2 </text>
<text text-anchor="start" x="336.7854" y="-963.9" font-family="Arial" font-size="14.00" fill="#666666">[numeric]</text>
<polygon fill="none" stroke="#000000" points="273,-922.5 273,-952.5 601,-952.5 601,-922.5 273,-922.5"/>
<text text-anchor="start" x="280" y="-933.9" font-family="Arial" font-size="14.00" fill="#000000">imf_ia_3 </text>
<text text-anchor="start" x="336.7854" y="-933.9" font-family="Arial" font-size="14.00" fill="#666666">[numeric]</text>
<polygon fill="none" stroke="#000000" points="273,-892.5 273,-922.5 601,-922.5 601,-892.5 273,-892.5"/>
<text text-anchor="start" x="280" y="-903.9" font-family="Arial" font-size="14.00" fill="#000000">imf_ia_4 </text>
<text text-anchor="start" x="336.7854" y="-903.9" font-family="Arial" font-size="14.00" fill="#666666">[numeric]</text>
<polygon fill="none" stroke="#000000" points="273,-862.5 273,-892.5 601,-892.5 601,-862.5 273,-862.5"/>
<text text-anchor="start" x="280" y="-873.9" font-family="Arial" font-size="14.00" fill="#000000">imf_ia_5 </text>
<text text-anchor="start" x="336.7854" y="-873.9" font-family="Arial" font-size="14.00" fill="#666666">[numeric]</text>
<polygon fill="none" stroke="#000000" points="273,-832.5 273,-862.5 601,-862.5 601,-832.5 273,-832.5"/>
<text text-anchor="start" x="280" y="-843.9" font-family="Arial" font-size="14.00" fill="#000000">imf_ia_6 </text>
<text text-anchor="start" x="336.7854" y="-843.9" font-family="Arial" font-size="14.00" fill="#666666">[numeric]</text>
<polygon fill="none" stroke="#000000" points="273,-802.5 273,-832.5 601,-832.5 601,-802.5 273,-802.5"/>
<text text-anchor="start" x="280" y="-813.9" font-family="Arial" font-size="14.00" fill="#000000">imf_ia_7 </text>
<text text-anchor="start" x="336.7854" y="-813.9" font-family="Arial" font-size="14.00" fill="#666666">[numeric]</text>
<polygon fill="none" stroke="#000000" points="273,-772.5 273,-802.5 601,-802.5 601,-772.5 273,-772.5"/>
<text text-anchor="start" x="280" y="-783.9" font-family="Arial" font-size="14.00" fill="#000000">imf_ia_8 </text>
<text text-anchor="start" x="336.7854" y="-783.9" font-family="Arial" font-size="14.00" fill="#666666">[numeric]</text>
<polygon fill="none" stroke="#000000" points="273,-742.5 273,-772.5 601,-772.5 601,-742.5 273,-742.5"/>
<text text-anchor="start" x="280" y="-753.9" font-family="Arial" font-size="14.00" fill="#000000">imf_ip_0 </text>
<text text-anchor="start" x="336.7854" y="-753.9" font-family="Arial" font-size="14.00" fill="#666666">[numeric]</text>
<polygon fill="none" stroke="#000000" points="273,-712.5 273,-742.5 601,-742.5 601,-712.5 273,-712.5"/>
<text text-anchor="start" x="280" y="-723.9" font-family="Arial" font-size="14.00" fill="#000000">imf_ip_1 </text>
<text text-anchor="start" x="336.7854" y="-723.9" font-family="Arial" font-size="14.00" fill="#666666">[numeric]</text>
<polygon fill="none" stroke="#000000" points="273,-682.5 273,-712.5 601,-712.5 601,-682.5 273,-682.5"/>
<text text-anchor="start" x="280" y="-693.9" font-family="Arial" font-size="14.00" fill="#000000">imf_ip_2 </text>
<text text-anchor="start" x="336.7854" y="-693.9" font-family="Arial" font-size="14.00" fill="#666666">[numeric]</text>
<polygon fill="none" stroke="#000000" points="273,-652.5 273,-682.5 601,-682.5 601,-652.5 273,-652.5"/>
<text text-anchor="start" x="280" y="-663.9" font-family="Arial" font-size="14.00" fill="#000000">imf_ip_3 </text>
<text text-anchor="start" x="336.7854" y="-663.9" font-family="Arial" font-size="14.00" fill="#666666">[numeric]</text>
<polygon fill="none" stroke="#000000" points="273,-622.5 273,-652.5 601,-652.5 601,-622.5 273,-622.5"/>
<text text-anchor="start" x="280" y="-633.9" font-family="Arial" font-size="14.00" fill="#000000">imf_ip_4 </text>
<text text-anchor="start" x="336.7854" y="-633.9" font-family="Arial" font-size="14.00" fill="#666666">[numeric]</text>
<polygon fill="none" stroke="#000000" points="273,-592.5 273,-622.5 601,-622.5 601,-592.5 273,-592.5"/>
<text text-anchor="start" x="280" y="-603.9" font-family="Arial" font-size="14.00" fill="#000000">imf_ip_5 </text>
<text text-anchor="start" x="336.7854" y="-603.9" font-family="Arial" font-size="14.00" fill="#666666">[numeric]</text>
<polygon fill="none" stroke="#000000" points="273,-562.5 273,-592.5 601,-592.5 601,-562.5 273,-562.5"/>
<text text-anchor="start" x="280" y="-573.9" font-family="Arial" font-size="14.00" fill="#000000">imf_ip_6 </text>
<text text-anchor="start" x="336.7854" y="-573.9" font-family="Arial" font-size="14.00" fill="#666666">[numeric]</text>
<polygon fill="none" stroke="#000000" points="273,-532.5 273,-562.5 601,-562.5 601,-532.5 273,-532.5"/>
<text text-anchor="start" x="280" y="-543.9" font-family="Arial" font-size="14.00" fill="#000000">imf_ip_7 </text>
<text text-anchor="start" x="336.7854" y="-543.9" font-family="Arial" font-size="14.00" fill="#666666">[numeric]</text>
<polygon fill="none" stroke="#000000" points="273,-502.5 273,-532.5 601,-532.5 601,-502.5 273,-502.5"/>
<text text-anchor="start" x="280" y="-513.9" font-family="Arial" font-size="14.00" fill="#000000">imf_ip_8 </text>
<text text-anchor="start" x="336.7854" y="-513.9" font-family="Arial" font-size="14.00" fill="#666666">[numeric]</text>
<polygon fill="none" stroke="#000000" points="273,-472.5 273,-502.5 601,-502.5 601,-472.5 273,-472.5"/>
<text text-anchor="start" x="280" y="-483.9" font-family="Arial" font-size="14.00" fill="#000000">open </text>
<text text-anchor="start" x="315.021" y="-483.9" font-family="Arial" font-size="14.00" fill="#666666">[numeric]</text>
<polygon fill="none" stroke="#000000" points="273,-442.5 273,-472.5 601,-472.5 601,-442.5 273,-442.5"/>
<text text-anchor="start" x="280" y="-453.9" font-family="Arial" font-size="14.00" fill="#000000">high </text>
<text text-anchor="start" x="310.345" y="-453.9" font-family="Arial" font-size="14.00" fill="#666666">[numeric]</text>
<polygon fill="none" stroke="#000000" points="273,-412.5 273,-442.5 601,-442.5 601,-412.5 273,-412.5"/>
<text text-anchor="start" x="280" y="-423.9" font-family="Arial" font-size="14.00" fill="#000000">low </text>
<text text-anchor="start" x="304.8864" y="-423.9" font-family="Arial" font-size="14.00" fill="#666666">[numeric]</text>
<polygon fill="none" stroke="#000000" points="273,-382.5 273,-412.5 601,-412.5 601,-382.5 273,-382.5"/>
<text text-anchor="start" x="280" y="-393.9" font-family="Arial" font-size="14.00" fill="#000000">close </text>
<text text-anchor="start" x="316.5624" y="-393.9" font-family="Arial" font-size="14.00" fill="#666666">[numeric]</text>
<polygon fill="none" stroke="#000000" points="273,-352.5 273,-382.5 601,-382.5 601,-352.5 273,-352.5"/>
<text text-anchor="start" x="280" y="-363.9" font-family="Arial" font-size="14.00" fill="#000000">ask </text>
<text text-anchor="start" x="305.6732" y="-363.9" font-family="Arial" font-size="14.00" fill="#666666">[numeric]</text>
<polygon fill="none" stroke="#000000" points="273,-322.5 273,-352.5 601,-352.5 601,-322.5 273,-322.5"/>
<text text-anchor="start" x="280" y="-333.9" font-family="Arial" font-size="14.00" fill="#000000">bid </text>
<text text-anchor="start" x="302.5624" y="-333.9" font-family="Arial" font-size="14.00" fill="#666666">[numeric]</text>
<polygon fill="none" stroke="#000000" points="273,-292.5 273,-322.5 601,-322.5 601,-292.5 273,-292.5"/>
<text text-anchor="start" x="280" y="-303.9" font-family="Arial" font-size="14.00" fill="#000000">last </text>
<text text-anchor="start" x="305.6704" y="-303.9" font-family="Arial" font-size="14.00" fill="#666666">[numeric]</text>
<polygon fill="none" stroke="#000000" stroke-width="3" points="271.5,-291.5 271.5,-1499.5 602.5,-1499.5 602.5,-291.5 271.5,-291.5"/>
</g>
<!-- public.instrument -->
<g id="node2" class="node">
<title>public.instrument</title>
<polygon fill="#efefef" stroke="transparent" points="298,-132.5 298,-167.5 575,-167.5 575,-132.5 298,-132.5"/>
<polygon fill="none" stroke="#000000" points="298,-132.5 298,-167.5 575,-167.5 575,-132.5 298,-132.5"/>
<text text-anchor="start" x="304.7075" y="-145.3" font-family="Arial Bold" font-size="18.00" fill="#000000">public.instrument</text>
<text text-anchor="start" x="440.7245" y="-145.3" font-family="Arial" font-size="14.00" fill="#000000">    </text>
<text text-anchor="start" x="474.9293" y="-145.3" font-family="Arial" font-size="14.00" fill="#666666">[BASE TABLE]</text>
<polygon fill="none" stroke="#000000" points="298,-102.5 298,-132.5 575,-132.5 575,-102.5 298,-102.5"/>
<text text-anchor="start" x="305" y="-113.9" font-family="Arial" font-size="14.00" fill="#000000">id    </text>
<text text-anchor="start" x="350.094" y="-113.9" font-family="Arial" font-size="14.00" fill="#666666">[bigint]</text>
<polygon fill="none" stroke="#000000" points="298,-72.5 298,-102.5 575,-102.5 575,-72.5 298,-72.5"/>
<text text-anchor="start" x="305" y="-83.9" font-family="Arial" font-size="14.00" fill="#000000">name    </text>
<text text-anchor="start" x="374.2132" y="-83.9" font-family="Arial" font-size="14.00" fill="#666666">[text]</text>
<polygon fill="none" stroke="#000000" points="298,-42.5 298,-72.5 575,-72.5 575,-42.5 298,-42.5"/>
<text text-anchor="start" x="305" y="-53.9" font-family="Arial" font-size="14.00" fill="#000000">exchange    </text>
<text text-anchor="start" x="399.9004" y="-53.9" font-family="Arial" font-size="14.00" fill="#666666">[bigint]</text>
</g>
<!-- public.features_202406&#45;&gt;public.instrument -->
<g id="edge1" class="edge">
<title>public.features_202406:instrument&#45;&gt;public.instrument:id</title>
<path fill="none" stroke="#000000" d="M264.8909,-1441.3054C208.2721,-1350.6503 230.6216,-294.7302 273,-247 362.7464,-145.9199 485.2536,-312.0801 575,-211 602.5904,-179.9253 616.5556,-117.5 575,-117.5"/>
<polygon fill="#000000" stroke="#000000" points="265.0534,-1441.4294 270.2682,-1451.076 269.0267,-1444.4647 273,-1447.5 273,-1447.5 273,-1447.5 269.0267,-1444.4647 275.7318,-1443.924 265.0534,-1441.4294 265.0534,-1441.4294"/>
<text text-anchor="start" x="7.279" y="-1457.5" font-family="Arial" font-size="10.00" fill="#000000">FOREIGN KEY (instrument) REFERENCES instrument(id)</text>
</g>
</g>
</svg>
