<?xml version="1.0" encoding="UTF-8" standalone="no"?>
<!DOCTYPE svg PUBLIC "-//W3C//DTD SVG 1.1//EN"
 "http://www.w3.org/Graphics/SVG/1.1/DTD/svg11.dtd">
<!-- Generated by graphviz version 2.40.1 (20161225.0304)
 -->
<!-- Title: public.vpin_ohlcv Pages: 1 -->
<svg width="775pt" height="742pt"
 viewBox="0.00 0.00 775.00 742.00" xmlns="http://www.w3.org/2000/svg" xmlns:xlink="http://www.w3.org/1999/xlink">
<g id="graph0" class="graph" transform="scale(1 1) rotate(0) translate(4 738)">
<title>public.vpin_ohlcv</title>
<polygon fill="#ffffff" stroke="transparent" points="-4,4 -4,-738 771,-738 771,4 -4,4"/>
<!-- public.vpin_ohlcv -->
<g id="node1" class="node">
<title>public.vpin_ohlcv</title>
<polygon fill="#efefef" stroke="transparent" points="273,-652.5 273,-687.5 551,-687.5 551,-652.5 273,-652.5"/>
<polygon fill="none" stroke="#000000" points="273,-652.5 273,-687.5 551,-687.5 551,-652.5 273,-652.5"/>
<text text-anchor="start" x="279.7017" y="-665.3" font-family="Arial Bold" font-size="18.00" fill="#000000">public.vpin_ohlcv</text>
<text text-anchor="start" x="416.7303" y="-665.3" font-family="Arial" font-size="14.00" fill="#000000">    </text>
<text text-anchor="start" x="450.9351" y="-665.3" font-family="Arial" font-size="14.00" fill="#666666">[BASE TABLE]</text>
<polygon fill="none" stroke="#000000" points="273,-622.5 273,-652.5 551,-652.5 551,-622.5 273,-622.5"/>
<text text-anchor="start" x="280" y="-633.9" font-family="Arial" font-size="14.00" fill="#000000">id </text>
<text text-anchor="start" x="294.7798" y="-633.9" font-family="Arial" font-size="14.00" fill="#666666">[bigint]</text>
<polygon fill="none" stroke="#000000" points="273,-592.5 273,-622.5 551,-622.5 551,-592.5 273,-592.5"/>
<text text-anchor="start" x="280" y="-603.9" font-family="Arial" font-size="14.00" fill="#000000">instrument </text>
<text text-anchor="start" x="349.23" y="-603.9" font-family="Arial" font-size="14.00" fill="#666666">[bigint]</text>
<polygon fill="none" stroke="#000000" points="273,-562.5 273,-592.5 551,-592.5 551,-562.5 273,-562.5"/>
<text text-anchor="start" x="280" y="-573.9" font-family="Arial" font-size="14.00" fill="#000000">vpin </text>
<text text-anchor="start" x="309.5624" y="-573.9" font-family="Arial" font-size="14.00" fill="#666666">[bigint]</text>
<polygon fill="none" stroke="#000000" points="273,-532.5 273,-562.5 551,-562.5 551,-532.5 273,-532.5"/>
<text text-anchor="start" x="280" y="-543.9" font-family="Arial" font-size="14.00" fill="#000000">epoch </text>
<text text-anchor="start" x="322.021" y="-543.9" font-family="Arial" font-size="14.00" fill="#666666">[timestamp without time zone]</text>
<polygon fill="none" stroke="#000000" points="273,-502.5 273,-532.5 551,-532.5 551,-502.5 273,-502.5"/>
<text text-anchor="start" x="280" y="-513.9" font-family="Arial" font-size="14.00" fill="#000000">open </text>
<text text-anchor="start" x="315.021" y="-513.9" font-family="Arial" font-size="14.00" fill="#666666">[numeric]</text>
<polygon fill="none" stroke="#000000" points="273,-472.5 273,-502.5 551,-502.5 551,-472.5 273,-472.5"/>
<text text-anchor="start" x="280" y="-483.9" font-family="Arial" font-size="14.00" fill="#000000">high </text>
<text text-anchor="start" x="310.345" y="-483.9" font-family="Arial" font-size="14.00" fill="#666666">[numeric]</text>
<polygon fill="none" stroke="#000000" points="273,-442.5 273,-472.5 551,-472.5 551,-442.5 273,-442.5"/>
<text text-anchor="start" x="280" y="-453.9" font-family="Arial" font-size="14.00" fill="#000000">low </text>
<text text-anchor="start" x="304.8864" y="-453.9" font-family="Arial" font-size="14.00" fill="#666666">[numeric]</text>
<polygon fill="none" stroke="#000000" points="273,-412.5 273,-442.5 551,-442.5 551,-412.5 273,-412.5"/>
<text text-anchor="start" x="280" y="-423.9" font-family="Arial" font-size="14.00" fill="#000000">close </text>
<text text-anchor="start" x="316.5624" y="-423.9" font-family="Arial" font-size="14.00" fill="#666666">[numeric]</text>
<polygon fill="none" stroke="#000000" points="273,-382.5 273,-412.5 551,-412.5 551,-382.5 273,-382.5"/>
<text text-anchor="start" x="280" y="-393.9" font-family="Arial" font-size="14.00" fill="#000000">volume </text>
<text text-anchor="start" x="329.0056" y="-393.9" font-family="Arial" font-size="14.00" fill="#666666">[numeric]</text>
<polygon fill="none" stroke="#000000" points="273,-352.5 273,-382.5 551,-382.5 551,-352.5 273,-352.5"/>
<text text-anchor="start" x="280" y="-363.9" font-family="Arial" font-size="14.00" fill="#000000">buyvolume </text>
<text text-anchor="start" x="351.5708" y="-363.9" font-family="Arial" font-size="14.00" fill="#666666">[numeric]</text>
<polygon fill="none" stroke="#000000" points="273,-322.5 273,-352.5 551,-352.5 551,-322.5 273,-322.5"/>
<text text-anchor="start" x="280" y="-333.9" font-family="Arial" font-size="14.00" fill="#000000">sellvolume </text>
<text text-anchor="start" x="350.0014" y="-333.9" font-family="Arial" font-size="14.00" fill="#666666">[numeric]</text>
<polygon fill="none" stroke="#000000" points="273,-292.5 273,-322.5 551,-322.5 551,-292.5 273,-292.5"/>
<text text-anchor="start" x="280" y="-303.9" font-family="Arial" font-size="14.00" fill="#000000">number </text>
<text text-anchor="start" x="331.3422" y="-303.9" font-family="Arial" font-size="14.00" fill="#666666">[bigint]</text>
<polygon fill="none" stroke="#000000" stroke-width="3" points="271.5,-291.5 271.5,-689.5 552.5,-689.5 552.5,-291.5 271.5,-291.5"/>
</g>
<!-- public.instrument -->
<g id="node2" class="node">
<title>public.instrument</title>
<polygon fill="#efefef" stroke="transparent" points="96,-132.5 96,-167.5 373,-167.5 373,-132.5 96,-132.5"/>
<polygon fill="none" stroke="#000000" points="96,-132.5 96,-167.5 373,-167.5 373,-132.5 96,-132.5"/>
<text text-anchor="start" x="102.7075" y="-145.3" font-family="Arial Bold" font-size="18.00" fill="#000000">public.instrument</text>
<text text-anchor="start" x="238.7245" y="-145.3" font-family="Arial" font-size="14.00" fill="#000000">    </text>
<text text-anchor="start" x="272.9293" y="-145.3" font-family="Arial" font-size="14.00" fill="#666666">[BASE TABLE]</text>
<polygon fill="none" stroke="#000000" points="96,-102.5 96,-132.5 373,-132.5 373,-102.5 96,-102.5"/>
<text text-anchor="start" x="103" y="-113.9" font-family="Arial" font-size="14.00" fill="#000000">id    </text>
<text text-anchor="start" x="148.094" y="-113.9" font-family="Arial" font-size="14.00" fill="#666666">[bigint]</text>
<polygon fill="none" stroke="#000000" points="96,-72.5 96,-102.5 373,-102.5 373,-72.5 96,-72.5"/>
<text text-anchor="start" x="103" y="-83.9" font-family="Arial" font-size="14.00" fill="#000000">name    </text>
<text text-anchor="start" x="172.2132" y="-83.9" font-family="Arial" font-size="14.00" fill="#666666">[text]</text>
<polygon fill="none" stroke="#000000" points="96,-42.5 96,-72.5 373,-72.5 373,-42.5 96,-42.5"/>
<text text-anchor="start" x="103" y="-53.9" font-family="Arial" font-size="14.00" fill="#000000">exchange    </text>
<text text-anchor="start" x="197.9004" y="-53.9" font-family="Arial" font-size="14.00" fill="#666666">[bigint]</text>
</g>
<!-- public.vpin_ohlcv&#45;&gt;public.instrument -->
<g id="edge1" class="edge">
<title>public.vpin_ohlcv:instrument&#45;&gt;public.instrument:id</title>
<path fill="none" stroke="#000000" d="M262.9873,-607.1856C115.7147,-597.6877 182.8494,-375.2686 273,-247 300.1617,-208.3535 345.8383,-249.6465 373,-211 396.895,-177.0016 414.5556,-117.5 373,-117.5"/>
<polygon fill="#000000" stroke="#000000" points="263.0049,-607.186 272.8587,-611.9978 268.0025,-607.343 273,-607.5 273,-607.5 273,-607.5 268.0025,-607.343 273.1413,-603.0022 263.0049,-607.186 263.0049,-607.186"/>
<text text-anchor="start" x="7.279" y="-617.5" font-family="Arial" font-size="10.00" fill="#000000">FOREIGN KEY (instrument) REFERENCES instrument(id)</text>
</g>
<!-- public.vpin -->
<g id="node3" class="node">
<title>public.vpin</title>
<polygon fill="#efefef" stroke="transparent" points="477,-117.5 477,-152.5 703,-152.5 703,-117.5 477,-117.5"/>
<polygon fill="none" stroke="#000000" points="477,-117.5 477,-152.5 703,-152.5 703,-117.5 477,-117.5"/>
<text text-anchor="start" x="483.7081" y="-130.3" font-family="Arial Bold" font-size="18.00" fill="#000000">public.vpin</text>
<text text-anchor="start" x="568.7239" y="-130.3" font-family="Arial" font-size="14.00" fill="#000000">    </text>
<text text-anchor="start" x="602.9287" y="-130.3" font-family="Arial" font-size="14.00" fill="#666666">[BASE TABLE]</text>
<polygon fill="none" stroke="#000000" points="477,-87.5 477,-117.5 703,-117.5 703,-87.5 477,-87.5"/>
<text text-anchor="start" x="484" y="-98.9" font-family="Arial" font-size="14.00" fill="#000000">id    </text>
<text text-anchor="start" x="529.094" y="-98.9" font-family="Arial" font-size="14.00" fill="#666666">[bigint]</text>
<polygon fill="none" stroke="#000000" points="477,-57.5 477,-87.5 703,-87.5 703,-57.5 477,-57.5"/>
<text text-anchor="start" x="484" y="-68.9" font-family="Arial" font-size="14.00" fill="#000000">threshold    </text>
<text text-anchor="start" x="575.7756" y="-68.9" font-family="Arial" font-size="14.00" fill="#666666">[numeric]</text>
</g>
<!-- public.vpin_ohlcv&#45;&gt;public.vpin -->
<g id="edge2" class="edge">
<title>public.vpin_ohlcv:vpin&#45;&gt;public.vpin:id</title>
<path fill="none" stroke="#000000" d="M561.3587,-577.1455C694.0581,-567.7538 617.6417,-373.8643 551,-247 532.4248,-211.6388 495.5752,-231.3612 477,-196 457.6749,-159.2113 435.4444,-102.5 477,-102.5"/>
<polygon fill="#000000" stroke="#000000" points="560.9941,-577.1579 550.846,-573.0026 555.9971,-577.3289 551,-577.5 551,-577.5 551,-577.5 555.9971,-577.3289 551.154,-581.9974 560.9941,-577.1579 560.9941,-577.1579"/>
<text text-anchor="start" x="557.613" y="-587.5" font-family="Arial" font-size="10.00" fill="#000000">FOREIGN KEY (vpin) REFERENCES vpin(id)</text>
</g>
</g>
</svg>
