<?xml version="1.0" encoding="UTF-8" standalone="no"?>
<!DOCTYPE svg PUBLIC "-//W3C//DTD SVG 1.1//EN"
 "http://www.w3.org/Graphics/SVG/1.1/DTD/svg11.dtd">
<!-- Generated by graphviz version 2.40.1 (20161225.0304)
 -->
<!-- Title: public.ohlcv Pages: 1 -->
<svg width="583pt" height="622pt"
 viewBox="0.00 0.00 582.50 622.00" xmlns="http://www.w3.org/2000/svg" xmlns:xlink="http://www.w3.org/1999/xlink">
<g id="graph0" class="graph" transform="scale(1 1) rotate(0) translate(4 618)">
<title>public.ohlcv</title>
<polygon fill="#ffffff" stroke="transparent" points="-4,4 -4,-618 578.5,-618 578.5,4 -4,4"/>
<!-- public.ohlcv -->
<g id="node1" class="node">
<title>public.ohlcv</title>
<polygon fill="#efefef" stroke="transparent" points="273,-532.5 273,-567.5 514,-567.5 514,-532.5 273,-532.5"/>
<polygon fill="none" stroke="#000000" points="273,-532.5 273,-567.5 514,-567.5 514,-532.5 273,-532.5"/>
<text text-anchor="start" x="282.7081" y="-545.3" font-family="Arial Bold" font-size="18.00" fill="#000000">public.ohlcv</text>
<text text-anchor="start" x="376.7239" y="-545.3" font-family="Arial" font-size="14.00" fill="#000000">    </text>
<text text-anchor="start" x="410.9287" y="-545.3" font-family="Arial" font-size="14.00" fill="#666666">[BASE TABLE]</text>
<polygon fill="none" stroke="#000000" points="273,-502.5 273,-532.5 514,-532.5 514,-502.5 273,-502.5"/>
<text text-anchor="start" x="280" y="-513.9" font-family="Arial" font-size="14.00" fill="#000000">instrument </text>
<text text-anchor="start" x="349.23" y="-513.9" font-family="Arial" font-size="14.00" fill="#666666">[bigint]</text>
<polygon fill="none" stroke="#000000" points="273,-472.5 273,-502.5 514,-502.5 514,-472.5 273,-472.5"/>
<text text-anchor="start" x="279.9194" y="-483.9" font-family="Arial" font-size="14.00" fill="#000000">epoch </text>
<text text-anchor="start" x="321.9404" y="-483.9" font-family="Arial" font-size="14.00" fill="#666666">[timestamp without time zone]</text>
<polygon fill="none" stroke="#000000" points="273,-442.5 273,-472.5 514,-472.5 514,-442.5 273,-442.5"/>
<text text-anchor="start" x="280" y="-453.9" font-family="Arial" font-size="14.00" fill="#000000">open </text>
<text text-anchor="start" x="315.021" y="-453.9" font-family="Arial" font-size="14.00" fill="#666666">[numeric]</text>
<polygon fill="none" stroke="#000000" points="273,-412.5 273,-442.5 514,-442.5 514,-412.5 273,-412.5"/>
<text text-anchor="start" x="280" y="-423.9" font-family="Arial" font-size="14.00" fill="#000000">high </text>
<text text-anchor="start" x="310.345" y="-423.9" font-family="Arial" font-size="14.00" fill="#666666">[numeric]</text>
<polygon fill="none" stroke="#000000" points="273,-382.5 273,-412.5 514,-412.5 514,-382.5 273,-382.5"/>
<text text-anchor="start" x="280" y="-393.9" font-family="Arial" font-size="14.00" fill="#000000">low </text>
<text text-anchor="start" x="304.8864" y="-393.9" font-family="Arial" font-size="14.00" fill="#666666">[numeric]</text>
<polygon fill="none" stroke="#000000" points="273,-352.5 273,-382.5 514,-382.5 514,-352.5 273,-352.5"/>
<text text-anchor="start" x="280" y="-363.9" font-family="Arial" font-size="14.00" fill="#000000">close </text>
<text text-anchor="start" x="316.5624" y="-363.9" font-family="Arial" font-size="14.00" fill="#666666">[numeric]</text>
<polygon fill="none" stroke="#000000" points="273,-322.5 273,-352.5 514,-352.5 514,-322.5 273,-322.5"/>
<text text-anchor="start" x="280" y="-333.9" font-family="Arial" font-size="14.00" fill="#000000">volume </text>
<text text-anchor="start" x="329.0056" y="-333.9" font-family="Arial" font-size="14.00" fill="#666666">[numeric]</text>
<polygon fill="none" stroke="#000000" points="273,-292.5 273,-322.5 514,-322.5 514,-292.5 273,-292.5"/>
<text text-anchor="start" x="280" y="-303.9" font-family="Arial" font-size="14.00" fill="#000000">number </text>
<text text-anchor="start" x="331.3422" y="-303.9" font-family="Arial" font-size="14.00" fill="#666666">[bigint]</text>
<polygon fill="none" stroke="#000000" stroke-width="3" points="271,-291.5 271,-569.5 515,-569.5 515,-291.5 271,-291.5"/>
</g>
<!-- public.instrument -->
<g id="node2" class="node">
<title>public.instrument</title>
<polygon fill="#efefef" stroke="transparent" points="255,-132.5 255,-167.5 532,-167.5 532,-132.5 255,-132.5"/>
<polygon fill="none" stroke="#000000" points="255,-132.5 255,-167.5 532,-167.5 532,-132.5 255,-132.5"/>
<text text-anchor="start" x="261.7075" y="-145.3" font-family="Arial Bold" font-size="18.00" fill="#000000">public.instrument</text>
<text text-anchor="start" x="397.7245" y="-145.3" font-family="Arial" font-size="14.00" fill="#000000">    </text>
<text text-anchor="start" x="431.9293" y="-145.3" font-family="Arial" font-size="14.00" fill="#666666">[BASE TABLE]</text>
<polygon fill="none" stroke="#000000" points="255,-102.5 255,-132.5 532,-132.5 532,-102.5 255,-102.5"/>
<text text-anchor="start" x="262" y="-113.9" font-family="Arial" font-size="14.00" fill="#000000">id    </text>
<text text-anchor="start" x="307.094" y="-113.9" font-family="Arial" font-size="14.00" fill="#666666">[bigint]</text>
<polygon fill="none" stroke="#000000" points="255,-72.5 255,-102.5 532,-102.5 532,-72.5 255,-72.5"/>
<text text-anchor="start" x="262" y="-83.9" font-family="Arial" font-size="14.00" fill="#000000">name    </text>
<text text-anchor="start" x="331.2132" y="-83.9" font-family="Arial" font-size="14.00" fill="#666666">[text]</text>
<polygon fill="none" stroke="#000000" points="255,-42.5 255,-72.5 532,-72.5 532,-42.5 255,-42.5"/>
<text text-anchor="start" x="262" y="-53.9" font-family="Arial" font-size="14.00" fill="#000000">exchange    </text>
<text text-anchor="start" x="356.9004" y="-53.9" font-family="Arial" font-size="14.00" fill="#666666">[bigint]</text>
</g>
<!-- public.ohlcv&#45;&gt;public.instrument -->
<g id="edge1" class="edge">
<title>public.ohlcv:instrument&#45;&gt;public.instrument:id</title>
<path fill="none" stroke="#000000" d="M262.8999,-515.7166C182.7781,-486.8604 169.4969,-117.5 255,-117.5"/>
<polygon fill="#000000" stroke="#000000" points="263.1523,-515.7611 272.2175,-521.9315 268.0762,-516.6306 273,-517.5 273,-517.5 273,-517.5 268.0762,-516.6306 273.7825,-513.0685 263.1523,-515.7611 263.1523,-515.7611"/>
<text text-anchor="start" x="7.279" y="-527.5" font-family="Arial" font-size="10.00" fill="#000000">FOREIGN KEY (instrument) REFERENCES instrument(id)</text>
</g>
</g>
</svg>
