<?xml version="1.0" encoding="UTF-8" standalone="no"?>
<!DOCTYPE svg PUBLIC "-//W3C//DTD SVG 1.1//EN"
 "http://www.w3.org/Graphics/SVG/1.1/DTD/svg11.dtd">
<!-- Generated by graphviz version 2.40.1 (20161225.0304)
 -->
<!-- Title: public.vpin Pages: 1 -->
<svg width="545pt" height="682pt"
 viewBox="0.00 0.00 545.00 682.00" xmlns="http://www.w3.org/2000/svg" xmlns:xlink="http://www.w3.org/1999/xlink">
<g id="graph0" class="graph" transform="scale(1 1) rotate(0) translate(4 678)">
<title>public.vpin</title>
<polygon fill="#ffffff" stroke="transparent" points="-4,4 -4,-678 541,-678 541,4 -4,4"/>
<!-- public.vpin -->
<g id="node1" class="node">
<title>public.vpin</title>
<polygon fill="#efefef" stroke="transparent" points="69,-105.5 69,-140.5 295,-140.5 295,-105.5 69,-105.5"/>
<polygon fill="none" stroke="#000000" points="69,-105.5 69,-140.5 295,-140.5 295,-105.5 69,-105.5"/>
<text text-anchor="start" x="75.7081" y="-118.3" font-family="Arial Bold" font-size="18.00" fill="#000000">public.vpin</text>
<text text-anchor="start" x="160.7239" y="-118.3" font-family="Arial" font-size="14.00" fill="#000000">    </text>
<text text-anchor="start" x="194.9287" y="-118.3" font-family="Arial" font-size="14.00" fill="#666666">[BASE TABLE]</text>
<polygon fill="none" stroke="#000000" points="69,-75.5 69,-105.5 295,-105.5 295,-75.5 69,-75.5"/>
<text text-anchor="start" x="76" y="-86.9" font-family="Arial" font-size="14.00" fill="#000000">id </text>
<text text-anchor="start" x="90.7798" y="-86.9" font-family="Arial" font-size="14.00" fill="#666666">[bigint]</text>
<polygon fill="none" stroke="#000000" points="69,-45.5 69,-75.5 295,-75.5 295,-45.5 69,-45.5"/>
<text text-anchor="start" x="76" y="-56.9" font-family="Arial" font-size="14.00" fill="#000000">threshold </text>
<text text-anchor="start" x="137.4614" y="-56.9" font-family="Arial" font-size="14.00" fill="#666666">[numeric]</text>
<polygon fill="none" stroke="#000000" stroke-width="3" points="67.5,-44.5 67.5,-142.5 296.5,-142.5 296.5,-44.5 67.5,-44.5"/>
</g>
<!-- public.vpin_ohlcv -->
<g id="node2" class="node">
<title>public.vpin_ohlcv</title>
<polygon fill="#efefef" stroke="transparent" points="43,-595.5 43,-630.5 321,-630.5 321,-595.5 43,-595.5"/>
<polygon fill="none" stroke="#000000" points="43,-595.5 43,-630.5 321,-630.5 321,-595.5 43,-595.5"/>
<text text-anchor="start" x="49.7017" y="-608.3" font-family="Arial Bold" font-size="18.00" fill="#000000">public.vpin_ohlcv</text>
<text text-anchor="start" x="186.7303" y="-608.3" font-family="Arial" font-size="14.00" fill="#000000">    </text>
<text text-anchor="start" x="220.9351" y="-608.3" font-family="Arial" font-size="14.00" fill="#666666">[BASE TABLE]</text>
<polygon fill="none" stroke="#000000" points="43,-565.5 43,-595.5 321,-595.5 321,-565.5 43,-565.5"/>
<text text-anchor="start" x="50" y="-576.9" font-family="Arial" font-size="14.00" fill="#000000">instrument    </text>
<text text-anchor="start" x="149.5442" y="-576.9" font-family="Arial" font-size="14.00" fill="#666666">[bigint]</text>
<polygon fill="none" stroke="#000000" points="43,-535.5 43,-565.5 321,-565.5 321,-535.5 43,-535.5"/>
<text text-anchor="start" x="50" y="-546.9" font-family="Arial" font-size="14.00" fill="#000000">vpin    </text>
<text text-anchor="start" x="109.8766" y="-546.9" font-family="Arial" font-size="14.00" fill="#666666">[bigint]</text>
<polygon fill="none" stroke="#000000" points="43,-505.5 43,-535.5 321,-535.5 321,-505.5 43,-505.5"/>
<text text-anchor="start" x="50" y="-516.9" font-family="Arial" font-size="14.00" fill="#000000">epoch    </text>
<text text-anchor="start" x="122.3352" y="-516.9" font-family="Arial" font-size="14.00" fill="#666666">[timestamp without time zone]</text>
<polygon fill="none" stroke="#000000" points="43,-475.5 43,-505.5 321,-505.5 321,-475.5 43,-475.5"/>
<text text-anchor="start" x="50" y="-486.9" font-family="Arial" font-size="14.00" fill="#000000">open    </text>
<text text-anchor="start" x="115.3352" y="-486.9" font-family="Arial" font-size="14.00" fill="#666666">[numeric]</text>
<polygon fill="none" stroke="#000000" points="43,-445.5 43,-475.5 321,-475.5 321,-445.5 43,-445.5"/>
<text text-anchor="start" x="50" y="-456.9" font-family="Arial" font-size="14.00" fill="#000000">high    </text>
<text text-anchor="start" x="110.6592" y="-456.9" font-family="Arial" font-size="14.00" fill="#666666">[numeric]</text>
<polygon fill="none" stroke="#000000" points="43,-415.5 43,-445.5 321,-445.5 321,-415.5 43,-415.5"/>
<text text-anchor="start" x="50" y="-426.9" font-family="Arial" font-size="14.00" fill="#000000">low    </text>
<text text-anchor="start" x="105.2006" y="-426.9" font-family="Arial" font-size="14.00" fill="#666666">[numeric]</text>
<polygon fill="none" stroke="#000000" points="43,-385.5 43,-415.5 321,-415.5 321,-385.5 43,-385.5"/>
<text text-anchor="start" x="50" y="-396.9" font-family="Arial" font-size="14.00" fill="#000000">close    </text>
<text text-anchor="start" x="116.8766" y="-396.9" font-family="Arial" font-size="14.00" fill="#666666">[numeric]</text>
<polygon fill="none" stroke="#000000" points="43,-355.5 43,-385.5 321,-385.5 321,-355.5 43,-355.5"/>
<text text-anchor="start" x="50" y="-366.9" font-family="Arial" font-size="14.00" fill="#000000">volume    </text>
<text text-anchor="start" x="129.3198" y="-366.9" font-family="Arial" font-size="14.00" fill="#666666">[numeric]</text>
<polygon fill="none" stroke="#000000" points="43,-325.5 43,-355.5 321,-355.5 321,-325.5 43,-325.5"/>
<text text-anchor="start" x="50" y="-336.9" font-family="Arial" font-size="14.00" fill="#000000">buyvolume    </text>
<text text-anchor="start" x="151.885" y="-336.9" font-family="Arial" font-size="14.00" fill="#666666">[numeric]</text>
<polygon fill="none" stroke="#000000" points="43,-295.5 43,-325.5 321,-325.5 321,-295.5 43,-295.5"/>
<text text-anchor="start" x="50" y="-306.9" font-family="Arial" font-size="14.00" fill="#000000">sellvolume    </text>
<text text-anchor="start" x="150.3156" y="-306.9" font-family="Arial" font-size="14.00" fill="#666666">[numeric]</text>
<polygon fill="none" stroke="#000000" points="43,-265.5 43,-295.5 321,-295.5 321,-265.5 43,-265.5"/>
<text text-anchor="start" x="50" y="-276.9" font-family="Arial" font-size="14.00" fill="#000000">number    </text>
<text text-anchor="start" x="131.6564" y="-276.9" font-family="Arial" font-size="14.00" fill="#666666">[numeric]</text>
</g>
<!-- public.vpin_ohlcv&#45;&gt;public.vpin -->
<g id="edge1" class="edge">
<title>public.vpin_ohlcv:vpin&#45;&gt;public.vpin:id</title>
<path fill="none" stroke="#000000" d="M331.0506,-548.9245C421.5188,-519.5921 393.8859,-90.5 295,-90.5"/>
<polygon fill="#000000" stroke="#000000" points="330.8794,-548.9513 320.3031,-546.0543 325.9397,-549.7257 321,-550.5 321,-550.5 321,-550.5 325.9397,-549.7257 321.6969,-554.9457 330.8794,-548.9513 330.8794,-548.9513"/>
<text text-anchor="start" x="327.613" y="-560.5" font-family="Arial" font-size="10.00" fill="#000000">FOREIGN KEY (vpin) REFERENCES vpin(id)</text>
</g>
</g>
</svg>
