<?xml version="1.0" encoding="UTF-8" standalone="no"?>
<!DOCTYPE svg PUBLIC "-//W3C//DTD SVG 1.1//EN"
 "http://www.w3.org/Graphics/SVG/1.1/DTD/svg11.dtd">
<!-- Generated by graphviz version 2.40.1 (20161225.0304)
 -->
<!-- Title: public.instrument Pages: 1 -->
<svg width="1180pt" height="1769pt"
 viewBox="0.00 0.00 1179.50 1769.00" xmlns="http://www.w3.org/2000/svg" xmlns:xlink="http://www.w3.org/1999/xlink">
<g id="graph0" class="graph" transform="scale(1 1) rotate(0) translate(4 1765)">
<title>public.instrument</title>
<polygon fill="#ffffff" stroke="transparent" points="-4,4 -4,-1765 1175.5,-1765 1175.5,4 -4,4"/>
<!-- public.instrument -->
<g id="node1" class="node">
<title>public.instrument</title>
<polygon fill="#efefef" stroke="transparent" points="418.5,-352.5 418.5,-387.5 695.5,-387.5 695.5,-352.5 418.5,-352.5"/>
<polygon fill="none" stroke="#000000" points="418.5,-352.5 418.5,-387.5 695.5,-387.5 695.5,-352.5 418.5,-352.5"/>
<text text-anchor="start" x="425.2075" y="-365.3" font-family="Arial Bold" font-size="18.00" fill="#000000">public.instrument</text>
<text text-anchor="start" x="561.2245" y="-365.3" font-family="Arial" font-size="14.00" fill="#000000">    </text>
<text text-anchor="start" x="595.4293" y="-365.3" font-family="Arial" font-size="14.00" fill="#666666">[BASE TABLE]</text>
<polygon fill="none" stroke="#000000" points="418.5,-322.5 418.5,-352.5 695.5,-352.5 695.5,-322.5 418.5,-322.5"/>
<text text-anchor="start" x="425.5" y="-333.9" font-family="Arial" font-size="14.00" fill="#000000">id </text>
<text text-anchor="start" x="440.2798" y="-333.9" font-family="Arial" font-size="14.00" fill="#666666">[bigint]</text>
<polygon fill="none" stroke="#000000" points="418.5,-292.5 418.5,-322.5 695.5,-322.5 695.5,-292.5 418.5,-292.5"/>
<text text-anchor="start" x="425.5" y="-303.9" font-family="Arial" font-size="14.00" fill="#000000">name </text>
<text text-anchor="start" x="464.399" y="-303.9" font-family="Arial" font-size="14.00" fill="#666666">[text]</text>
<polygon fill="none" stroke="#000000" points="418.5,-262.5 418.5,-292.5 695.5,-292.5 695.5,-262.5 418.5,-262.5"/>
<text text-anchor="start" x="425.5" y="-273.9" font-family="Arial" font-size="14.00" fill="#000000">exchange </text>
<text text-anchor="start" x="490.0862" y="-273.9" font-family="Arial" font-size="14.00" fill="#666666">[bigint]</text>
<polygon fill="none" stroke="#000000" stroke-width="3" points="416.5,-261.5 416.5,-389.5 696.5,-389.5 696.5,-261.5 416.5,-261.5"/>
</g>
<!-- public.exchange -->
<g id="node5" class="node">
<title>public.exchange</title>
<polygon fill="#efefef" stroke="transparent" points="421.5,-102.5 421.5,-137.5 692.5,-137.5 692.5,-102.5 421.5,-102.5"/>
<polygon fill="none" stroke="#000000" points="421.5,-102.5 421.5,-137.5 692.5,-137.5 692.5,-102.5 421.5,-102.5"/>
<text text-anchor="start" x="428.1928" y="-115.3" font-family="Arial Bold" font-size="18.00" fill="#000000">public.exchange</text>
<text text-anchor="start" x="558.2392" y="-115.3" font-family="Arial" font-size="14.00" fill="#000000">    </text>
<text text-anchor="start" x="592.444" y="-115.3" font-family="Arial" font-size="14.00" fill="#666666">[BASE TABLE]</text>
<polygon fill="none" stroke="#000000" points="421.5,-72.5 421.5,-102.5 692.5,-102.5 692.5,-72.5 421.5,-72.5"/>
<text text-anchor="start" x="428.5" y="-83.9" font-family="Arial" font-size="14.00" fill="#000000">id    </text>
<text text-anchor="start" x="473.594" y="-83.9" font-family="Arial" font-size="14.00" fill="#666666">[bigint]</text>
<polygon fill="none" stroke="#000000" points="421.5,-42.5 421.5,-72.5 692.5,-72.5 692.5,-42.5 421.5,-42.5"/>
<text text-anchor="start" x="428.5" y="-53.9" font-family="Arial" font-size="14.00" fill="#000000">name    </text>
<text text-anchor="start" x="497.7132" y="-53.9" font-family="Arial" font-size="14.00" fill="#666666">[text]</text>
</g>
<!-- public.instrument&#45;&gt;public.exchange -->
<g id="edge4" class="edge">
<title>public.instrument:exchange&#45;&gt;public.exchange:id</title>
<path fill="none" stroke="#000000" d="M556.6798,-252.3252C547.0048,-197.0255 454.4038,-239.0777 421.5,-181 401.0158,-144.8439 379.9444,-87.5 421.5,-87.5"/>
<polygon fill="#000000" stroke="#000000" points="556.6964,-252.5323 553.0146,-262.8616 557.0982,-257.5162 557.5,-262.5 557.5,-262.5 557.5,-262.5 557.0982,-257.5162 561.9854,-262.1384 556.6964,-252.5323 556.6964,-252.5323"/>
<text text-anchor="start" x="564.096" y="-272.5" font-family="Arial" font-size="10.00" fill="#000000">FOREIGN KEY (exchange) REFERENCES exchange(id)</text>
</g>
<!-- public.ohlcv -->
<g id="node2" class="node">
<title>public.ohlcv</title>
<polygon fill="#efefef" stroke="transparent" points="43.5,-1217.5 43.5,-1252.5 314.5,-1252.5 314.5,-1217.5 43.5,-1217.5"/>
<polygon fill="none" stroke="#000000" points="43.5,-1217.5 43.5,-1252.5 314.5,-1252.5 314.5,-1217.5 43.5,-1217.5"/>
<text text-anchor="start" x="68.2081" y="-1230.3" font-family="Arial Bold" font-size="18.00" fill="#000000">public.ohlcv</text>
<text text-anchor="start" x="162.2239" y="-1230.3" font-family="Arial" font-size="14.00" fill="#000000">    </text>
<text text-anchor="start" x="196.4287" y="-1230.3" font-family="Arial" font-size="14.00" fill="#666666">[BASE TABLE]</text>
<polygon fill="none" stroke="#000000" points="43.5,-1187.5 43.5,-1217.5 314.5,-1217.5 314.5,-1187.5 43.5,-1187.5"/>
<text text-anchor="start" x="50.5" y="-1198.9" font-family="Arial" font-size="14.00" fill="#000000">instrument    </text>
<text text-anchor="start" x="150.0442" y="-1198.9" font-family="Arial" font-size="14.00" fill="#666666">[bigint]</text>
<polygon fill="none" stroke="#000000" points="43.5,-1157.5 43.5,-1187.5 314.5,-1187.5 314.5,-1157.5 43.5,-1157.5"/>
<text text-anchor="start" x="50.2623" y="-1168.9" font-family="Arial" font-size="14.00" fill="#000000">epoch    </text>
<text text-anchor="start" x="122.5975" y="-1168.9" font-family="Arial" font-size="14.00" fill="#666666">[timestamp without time zone]</text>
<polygon fill="none" stroke="#000000" points="43.5,-1127.5 43.5,-1157.5 314.5,-1157.5 314.5,-1127.5 43.5,-1127.5"/>
<text text-anchor="start" x="50.5" y="-1138.9" font-family="Arial" font-size="14.00" fill="#000000">open    </text>
<text text-anchor="start" x="115.8352" y="-1138.9" font-family="Arial" font-size="14.00" fill="#666666">[numeric]</text>
<polygon fill="none" stroke="#000000" points="43.5,-1097.5 43.5,-1127.5 314.5,-1127.5 314.5,-1097.5 43.5,-1097.5"/>
<text text-anchor="start" x="50.5" y="-1108.9" font-family="Arial" font-size="14.00" fill="#000000">high    </text>
<text text-anchor="start" x="111.1592" y="-1108.9" font-family="Arial" font-size="14.00" fill="#666666">[numeric]</text>
<polygon fill="none" stroke="#000000" points="43.5,-1067.5 43.5,-1097.5 314.5,-1097.5 314.5,-1067.5 43.5,-1067.5"/>
<text text-anchor="start" x="50.5" y="-1078.9" font-family="Arial" font-size="14.00" fill="#000000">low    </text>
<text text-anchor="start" x="105.7006" y="-1078.9" font-family="Arial" font-size="14.00" fill="#666666">[numeric]</text>
<polygon fill="none" stroke="#000000" points="43.5,-1037.5 43.5,-1067.5 314.5,-1067.5 314.5,-1037.5 43.5,-1037.5"/>
<text text-anchor="start" x="50.5" y="-1048.9" font-family="Arial" font-size="14.00" fill="#000000">close    </text>
<text text-anchor="start" x="117.3766" y="-1048.9" font-family="Arial" font-size="14.00" fill="#666666">[numeric]</text>
<polygon fill="none" stroke="#000000" points="43.5,-1007.5 43.5,-1037.5 314.5,-1037.5 314.5,-1007.5 43.5,-1007.5"/>
<text text-anchor="start" x="50.5" y="-1018.9" font-family="Arial" font-size="14.00" fill="#000000">volume    </text>
<text text-anchor="start" x="129.8198" y="-1018.9" font-family="Arial" font-size="14.00" fill="#666666">[numeric]</text>
<polygon fill="none" stroke="#000000" points="43.5,-977.5 43.5,-1007.5 314.5,-1007.5 314.5,-977.5 43.5,-977.5"/>
<text text-anchor="start" x="50.5" y="-988.9" font-family="Arial" font-size="14.00" fill="#000000">number    </text>
<text text-anchor="start" x="132.1564" y="-988.9" font-family="Arial" font-size="14.00" fill="#666666">[bigint]</text>
</g>
<!-- public.ohlcv&#45;&gt;public.instrument -->
<g id="edge1" class="edge">
<title>public.ohlcv:instrument&#45;&gt;public.instrument:id</title>
<path fill="none" stroke="#000000" d="M324.3178,-1198.9808C392.1248,-1147.4486 349.274,-546.164 366.5,-470 380.4553,-408.2969 355.2384,-337.5 418.5,-337.5"/>
<polygon fill="#000000" stroke="#000000" points="323.9135,-1199.1257 312.9816,-1198.2639 319.2068,-1200.8128 314.5,-1202.5 314.5,-1202.5 314.5,-1202.5 319.2068,-1200.8128 316.0184,-1206.7361 323.9135,-1199.1257 323.9135,-1199.1257"/>
<text text-anchor="start" x="321.779" y="-1212.5" font-family="Arial" font-size="10.00" fill="#000000">FOREIGN KEY (instrument) REFERENCES instrument(id)</text>
</g>
<!-- public.vpin_ohlcv -->
<g id="node3" class="node">
<title>public.vpin_ohlcv</title>
<polygon fill="#efefef" stroke="transparent" points="418.5,-1262.5 418.5,-1297.5 696.5,-1297.5 696.5,-1262.5 418.5,-1262.5"/>
<polygon fill="none" stroke="#000000" points="418.5,-1262.5 418.5,-1297.5 696.5,-1297.5 696.5,-1262.5 418.5,-1262.5"/>
<text text-anchor="start" x="425.2017" y="-1275.3" font-family="Arial Bold" font-size="18.00" fill="#000000">public.vpin_ohlcv</text>
<text text-anchor="start" x="562.2303" y="-1275.3" font-family="Arial" font-size="14.00" fill="#000000">    </text>
<text text-anchor="start" x="596.4351" y="-1275.3" font-family="Arial" font-size="14.00" fill="#666666">[BASE TABLE]</text>
<polygon fill="none" stroke="#000000" points="418.5,-1232.5 418.5,-1262.5 696.5,-1262.5 696.5,-1232.5 418.5,-1232.5"/>
<text text-anchor="start" x="425.5" y="-1243.9" font-family="Arial" font-size="14.00" fill="#000000">instrument    </text>
<text text-anchor="start" x="525.0442" y="-1243.9" font-family="Arial" font-size="14.00" fill="#666666">[bigint]</text>
<polygon fill="none" stroke="#000000" points="418.5,-1202.5 418.5,-1232.5 696.5,-1232.5 696.5,-1202.5 418.5,-1202.5"/>
<text text-anchor="start" x="425.5" y="-1213.9" font-family="Arial" font-size="14.00" fill="#000000">vpin    </text>
<text text-anchor="start" x="485.3766" y="-1213.9" font-family="Arial" font-size="14.00" fill="#666666">[bigint]</text>
<polygon fill="none" stroke="#000000" points="418.5,-1172.5 418.5,-1202.5 696.5,-1202.5 696.5,-1172.5 418.5,-1172.5"/>
<text text-anchor="start" x="425.5" y="-1183.9" font-family="Arial" font-size="14.00" fill="#000000">epoch    </text>
<text text-anchor="start" x="497.8352" y="-1183.9" font-family="Arial" font-size="14.00" fill="#666666">[timestamp without time zone]</text>
<polygon fill="none" stroke="#000000" points="418.5,-1142.5 418.5,-1172.5 696.5,-1172.5 696.5,-1142.5 418.5,-1142.5"/>
<text text-anchor="start" x="425.5" y="-1153.9" font-family="Arial" font-size="14.00" fill="#000000">open    </text>
<text text-anchor="start" x="490.8352" y="-1153.9" font-family="Arial" font-size="14.00" fill="#666666">[numeric]</text>
<polygon fill="none" stroke="#000000" points="418.5,-1112.5 418.5,-1142.5 696.5,-1142.5 696.5,-1112.5 418.5,-1112.5"/>
<text text-anchor="start" x="425.5" y="-1123.9" font-family="Arial" font-size="14.00" fill="#000000">high    </text>
<text text-anchor="start" x="486.1592" y="-1123.9" font-family="Arial" font-size="14.00" fill="#666666">[numeric]</text>
<polygon fill="none" stroke="#000000" points="418.5,-1082.5 418.5,-1112.5 696.5,-1112.5 696.5,-1082.5 418.5,-1082.5"/>
<text text-anchor="start" x="425.5" y="-1093.9" font-family="Arial" font-size="14.00" fill="#000000">low    </text>
<text text-anchor="start" x="480.7006" y="-1093.9" font-family="Arial" font-size="14.00" fill="#666666">[numeric]</text>
<polygon fill="none" stroke="#000000" points="418.5,-1052.5 418.5,-1082.5 696.5,-1082.5 696.5,-1052.5 418.5,-1052.5"/>
<text text-anchor="start" x="425.5" y="-1063.9" font-family="Arial" font-size="14.00" fill="#000000">close    </text>
<text text-anchor="start" x="492.3766" y="-1063.9" font-family="Arial" font-size="14.00" fill="#666666">[numeric]</text>
<polygon fill="none" stroke="#000000" points="418.5,-1022.5 418.5,-1052.5 696.5,-1052.5 696.5,-1022.5 418.5,-1022.5"/>
<text text-anchor="start" x="425.5" y="-1033.9" font-family="Arial" font-size="14.00" fill="#000000">volume    </text>
<text text-anchor="start" x="504.8198" y="-1033.9" font-family="Arial" font-size="14.00" fill="#666666">[numeric]</text>
<polygon fill="none" stroke="#000000" points="418.5,-992.5 418.5,-1022.5 696.5,-1022.5 696.5,-992.5 418.5,-992.5"/>
<text text-anchor="start" x="425.5" y="-1003.9" font-family="Arial" font-size="14.00" fill="#000000">buyvolume    </text>
<text text-anchor="start" x="527.385" y="-1003.9" font-family="Arial" font-size="14.00" fill="#666666">[numeric]</text>
<polygon fill="none" stroke="#000000" points="418.5,-962.5 418.5,-992.5 696.5,-992.5 696.5,-962.5 418.5,-962.5"/>
<text text-anchor="start" x="425.5" y="-973.9" font-family="Arial" font-size="14.00" fill="#000000">sellvolume    </text>
<text text-anchor="start" x="525.8156" y="-973.9" font-family="Arial" font-size="14.00" fill="#666666">[numeric]</text>
<polygon fill="none" stroke="#000000" points="418.5,-932.5 418.5,-962.5 696.5,-962.5 696.5,-932.5 418.5,-932.5"/>
<text text-anchor="start" x="425.5" y="-943.9" font-family="Arial" font-size="14.00" fill="#000000">number    </text>
<text text-anchor="start" x="507.1564" y="-943.9" font-family="Arial" font-size="14.00" fill="#666666">[numeric]</text>
</g>
<!-- public.vpin_ohlcv&#45;&gt;public.instrument -->
<g id="edge2" class="edge">
<title>public.vpin_ohlcv:instrument&#45;&gt;public.instrument:id</title>
<path fill="none" stroke="#000000" d="M408.6101,-1245.8429C344.1952,-1222.6669 398.0465,-963.0669 418.5,-890 492.5466,-625.4797 970.1887,-337.5 695.5,-337.5"/>
<polygon fill="#000000" stroke="#000000" points="408.6375,-1245.8474 417.7563,-1251.9381 413.5687,-1246.6737 418.5,-1247.5 418.5,-1247.5 418.5,-1247.5 413.5687,-1246.6737 419.2437,-1243.0619 408.6375,-1245.8474 408.6375,-1245.8474"/>
<text text-anchor="start" x="425.779" y="-1257.5" font-family="Arial" font-size="10.00" fill="#000000">FOREIGN KEY (instrument) REFERENCES instrument(id)</text>
</g>
<!-- public.features_202406 -->
<g id="node4" class="node">
<title>public.features_202406</title>
<polygon fill="#efefef" stroke="transparent" points="800.5,-1682.5 800.5,-1717.5 1128.5,-1717.5 1128.5,-1682.5 800.5,-1682.5"/>
<polygon fill="none" stroke="#000000" points="800.5,-1682.5 800.5,-1717.5 1128.5,-1717.5 1128.5,-1682.5 800.5,-1682.5"/>
<text text-anchor="start" x="807.179" y="-1695.3" font-family="Arial Bold" font-size="18.00" fill="#000000">public.features_202406</text>
<text text-anchor="start" x="994.253" y="-1695.3" font-family="Arial" font-size="14.00" fill="#000000">    </text>
<text text-anchor="start" x="1028.4578" y="-1695.3" font-family="Arial" font-size="14.00" fill="#666666">[BASE TABLE]</text>
<polygon fill="none" stroke="#000000" points="800.5,-1652.5 800.5,-1682.5 1128.5,-1682.5 1128.5,-1652.5 800.5,-1652.5"/>
<text text-anchor="start" x="807.5" y="-1663.9" font-family="Arial" font-size="14.00" fill="#000000">instrument    </text>
<text text-anchor="start" x="907.0442" y="-1663.9" font-family="Arial" font-size="14.00" fill="#666666">[bigint]</text>
<polygon fill="none" stroke="#000000" points="800.5,-1622.5 800.5,-1652.5 1128.5,-1652.5 1128.5,-1622.5 800.5,-1622.5"/>
<text text-anchor="start" x="807.5" y="-1633.9" font-family="Arial" font-size="14.00" fill="#000000">vpin    </text>
<text text-anchor="start" x="867.3766" y="-1633.9" font-family="Arial" font-size="14.00" fill="#666666">[bigint]</text>
<polygon fill="none" stroke="#000000" points="800.5,-1592.5 800.5,-1622.5 1128.5,-1622.5 1128.5,-1592.5 800.5,-1592.5"/>
<text text-anchor="start" x="807.5" y="-1603.9" font-family="Arial" font-size="14.00" fill="#000000">epoch    </text>
<text text-anchor="start" x="879.8352" y="-1603.9" font-family="Arial" font-size="14.00" fill="#666666">[timestamp without time zone]</text>
<polygon fill="none" stroke="#000000" points="800.5,-1562.5 800.5,-1592.5 1128.5,-1592.5 1128.5,-1562.5 800.5,-1562.5"/>
<text text-anchor="start" x="807.5" y="-1573.9" font-family="Arial" font-size="14.00" fill="#000000">volume    </text>
<text text-anchor="start" x="886.8198" y="-1573.9" font-family="Arial" font-size="14.00" fill="#666666">[numeric]</text>
<polygon fill="none" stroke="#000000" points="800.5,-1532.5 800.5,-1562.5 1128.5,-1562.5 1128.5,-1532.5 800.5,-1532.5"/>
<text text-anchor="start" x="807.5" y="-1543.9" font-family="Arial" font-size="14.00" fill="#000000">number    </text>
<text text-anchor="start" x="889.1564" y="-1543.9" font-family="Arial" font-size="14.00" fill="#666666">[numeric]</text>
<polygon fill="none" stroke="#000000" points="800.5,-1502.5 800.5,-1532.5 1128.5,-1532.5 1128.5,-1502.5 800.5,-1502.5"/>
<text text-anchor="start" x="807.5" y="-1513.9" font-family="Arial" font-size="14.00" fill="#000000">imf_imf_0    </text>
<text text-anchor="start" x="902.3682" y="-1513.9" font-family="Arial" font-size="14.00" fill="#666666">[numeric]</text>
<polygon fill="none" stroke="#000000" points="800.5,-1472.5 800.5,-1502.5 1128.5,-1502.5 1128.5,-1472.5 800.5,-1472.5"/>
<text text-anchor="start" x="807.5" y="-1483.9" font-family="Arial" font-size="14.00" fill="#000000">imf_imf_1    </text>
<text text-anchor="start" x="902.3682" y="-1483.9" font-family="Arial" font-size="14.00" fill="#666666">[numeric]</text>
<polygon fill="none" stroke="#000000" points="800.5,-1442.5 800.5,-1472.5 1128.5,-1472.5 1128.5,-1442.5 800.5,-1442.5"/>
<text text-anchor="start" x="807.5" y="-1453.9" font-family="Arial" font-size="14.00" fill="#000000">imf_imf_2    </text>
<text text-anchor="start" x="902.3682" y="-1453.9" font-family="Arial" font-size="14.00" fill="#666666">[numeric]</text>
<polygon fill="none" stroke="#000000" points="800.5,-1412.5 800.5,-1442.5 1128.5,-1442.5 1128.5,-1412.5 800.5,-1412.5"/>
<text text-anchor="start" x="807.5" y="-1423.9" font-family="Arial" font-size="14.00" fill="#000000">imf_imf_3    </text>
<text text-anchor="start" x="902.3682" y="-1423.9" font-family="Arial" font-size="14.00" fill="#666666">[numeric]</text>
<polygon fill="none" stroke="#000000" points="800.5,-1382.5 800.5,-1412.5 1128.5,-1412.5 1128.5,-1382.5 800.5,-1382.5"/>
<text text-anchor="start" x="807.5" y="-1393.9" font-family="Arial" font-size="14.00" fill="#000000">imf_imf_4    </text>
<text text-anchor="start" x="902.3682" y="-1393.9" font-family="Arial" font-size="14.00" fill="#666666">[numeric]</text>
<polygon fill="none" stroke="#000000" points="800.5,-1352.5 800.5,-1382.5 1128.5,-1382.5 1128.5,-1352.5 800.5,-1352.5"/>
<text text-anchor="start" x="807.5" y="-1363.9" font-family="Arial" font-size="14.00" fill="#000000">imf_imf_5    </text>
<text text-anchor="start" x="902.3682" y="-1363.9" font-family="Arial" font-size="14.00" fill="#666666">[numeric]</text>
<polygon fill="none" stroke="#000000" points="800.5,-1322.5 800.5,-1352.5 1128.5,-1352.5 1128.5,-1322.5 800.5,-1322.5"/>
<text text-anchor="start" x="807.5" y="-1333.9" font-family="Arial" font-size="14.00" fill="#000000">imf_imf_6    </text>
<text text-anchor="start" x="902.3682" y="-1333.9" font-family="Arial" font-size="14.00" fill="#666666">[numeric]</text>
<polygon fill="none" stroke="#000000" points="800.5,-1292.5 800.5,-1322.5 1128.5,-1322.5 1128.5,-1292.5 800.5,-1292.5"/>
<text text-anchor="start" x="807.5" y="-1303.9" font-family="Arial" font-size="14.00" fill="#000000">imf_imf_7    </text>
<text text-anchor="start" x="902.3682" y="-1303.9" font-family="Arial" font-size="14.00" fill="#666666">[numeric]</text>
<polygon fill="none" stroke="#000000" points="800.5,-1262.5 800.5,-1292.5 1128.5,-1292.5 1128.5,-1262.5 800.5,-1262.5"/>
<text text-anchor="start" x="807.5" y="-1273.9" font-family="Arial" font-size="14.00" fill="#000000">imf_imf_8    </text>
<text text-anchor="start" x="902.3682" y="-1273.9" font-family="Arial" font-size="14.00" fill="#666666">[numeric]</text>
<polygon fill="none" stroke="#000000" points="800.5,-1232.5 800.5,-1262.5 1128.5,-1262.5 1128.5,-1232.5 800.5,-1232.5"/>
<text text-anchor="start" x="807.5" y="-1243.9" font-family="Arial" font-size="14.00" fill="#000000">imf_ia_0    </text>
<text text-anchor="start" x="894.5996" y="-1243.9" font-family="Arial" font-size="14.00" fill="#666666">[numeric]</text>
<polygon fill="none" stroke="#000000" points="800.5,-1202.5 800.5,-1232.5 1128.5,-1232.5 1128.5,-1202.5 800.5,-1202.5"/>
<text text-anchor="start" x="807.5" y="-1213.9" font-family="Arial" font-size="14.00" fill="#000000">imf_ia_1    </text>
<text text-anchor="start" x="894.5996" y="-1213.9" font-family="Arial" font-size="14.00" fill="#666666">[numeric]</text>
<polygon fill="none" stroke="#000000" points="800.5,-1172.5 800.5,-1202.5 1128.5,-1202.5 1128.5,-1172.5 800.5,-1172.5"/>
<text text-anchor="start" x="807.5" y="-1183.9" font-family="Arial" font-size="14.00" fill="#000000">imf_ia_2    </text>
<text text-anchor="start" x="894.5996" y="-1183.9" font-family="Arial" font-size="14.00" fill="#666666">[numeric]</text>
<polygon fill="none" stroke="#000000" points="800.5,-1142.5 800.5,-1172.5 1128.5,-1172.5 1128.5,-1142.5 800.5,-1142.5"/>
<text text-anchor="start" x="807.5" y="-1153.9" font-family="Arial" font-size="14.00" fill="#000000">imf_ia_3    </text>
<text text-anchor="start" x="894.5996" y="-1153.9" font-family="Arial" font-size="14.00" fill="#666666">[numeric]</text>
<polygon fill="none" stroke="#000000" points="800.5,-1112.5 800.5,-1142.5 1128.5,-1142.5 1128.5,-1112.5 800.5,-1112.5"/>
<text text-anchor="start" x="807.5" y="-1123.9" font-family="Arial" font-size="14.00" fill="#000000">imf_ia_4    </text>
<text text-anchor="start" x="894.5996" y="-1123.9" font-family="Arial" font-size="14.00" fill="#666666">[numeric]</text>
<polygon fill="none" stroke="#000000" points="800.5,-1082.5 800.5,-1112.5 1128.5,-1112.5 1128.5,-1082.5 800.5,-1082.5"/>
<text text-anchor="start" x="807.5" y="-1093.9" font-family="Arial" font-size="14.00" fill="#000000">imf_ia_5    </text>
<text text-anchor="start" x="894.5996" y="-1093.9" font-family="Arial" font-size="14.00" fill="#666666">[numeric]</text>
<polygon fill="none" stroke="#000000" points="800.5,-1052.5 800.5,-1082.5 1128.5,-1082.5 1128.5,-1052.5 800.5,-1052.5"/>
<text text-anchor="start" x="807.5" y="-1063.9" font-family="Arial" font-size="14.00" fill="#000000">imf_ia_6    </text>
<text text-anchor="start" x="894.5996" y="-1063.9" font-family="Arial" font-size="14.00" fill="#666666">[numeric]</text>
<polygon fill="none" stroke="#000000" points="800.5,-1022.5 800.5,-1052.5 1128.5,-1052.5 1128.5,-1022.5 800.5,-1022.5"/>
<text text-anchor="start" x="807.5" y="-1033.9" font-family="Arial" font-size="14.00" fill="#000000">imf_ia_7    </text>
<text text-anchor="start" x="894.5996" y="-1033.9" font-family="Arial" font-size="14.00" fill="#666666">[numeric]</text>
<polygon fill="none" stroke="#000000" points="800.5,-992.5 800.5,-1022.5 1128.5,-1022.5 1128.5,-992.5 800.5,-992.5"/>
<text text-anchor="start" x="807.5" y="-1003.9" font-family="Arial" font-size="14.00" fill="#000000">imf_ia_8    </text>
<text text-anchor="start" x="894.5996" y="-1003.9" font-family="Arial" font-size="14.00" fill="#666666">[numeric]</text>
<polygon fill="none" stroke="#000000" points="800.5,-962.5 800.5,-992.5 1128.5,-992.5 1128.5,-962.5 800.5,-962.5"/>
<text text-anchor="start" x="807.5" y="-973.9" font-family="Arial" font-size="14.00" fill="#000000">imf_ip_0    </text>
<text text-anchor="start" x="894.5996" y="-973.9" font-family="Arial" font-size="14.00" fill="#666666">[numeric]</text>
<polygon fill="none" stroke="#000000" points="800.5,-932.5 800.5,-962.5 1128.5,-962.5 1128.5,-932.5 800.5,-932.5"/>
<text text-anchor="start" x="807.5" y="-943.9" font-family="Arial" font-size="14.00" fill="#000000">imf_ip_1    </text>
<text text-anchor="start" x="894.5996" y="-943.9" font-family="Arial" font-size="14.00" fill="#666666">[numeric]</text>
<polygon fill="none" stroke="#000000" points="800.5,-902.5 800.5,-932.5 1128.5,-932.5 1128.5,-902.5 800.5,-902.5"/>
<text text-anchor="start" x="807.5" y="-913.9" font-family="Arial" font-size="14.00" fill="#000000">imf_ip_2    </text>
<text text-anchor="start" x="894.5996" y="-913.9" font-family="Arial" font-size="14.00" fill="#666666">[numeric]</text>
<polygon fill="none" stroke="#000000" points="800.5,-872.5 800.5,-902.5 1128.5,-902.5 1128.5,-872.5 800.5,-872.5"/>
<text text-anchor="start" x="807.5" y="-883.9" font-family="Arial" font-size="14.00" fill="#000000">imf_ip_3    </text>
<text text-anchor="start" x="894.5996" y="-883.9" font-family="Arial" font-size="14.00" fill="#666666">[numeric]</text>
<polygon fill="none" stroke="#000000" points="800.5,-842.5 800.5,-872.5 1128.5,-872.5 1128.5,-842.5 800.5,-842.5"/>
<text text-anchor="start" x="807.5" y="-853.9" font-family="Arial" font-size="14.00" fill="#000000">imf_ip_4    </text>
<text text-anchor="start" x="894.5996" y="-853.9" font-family="Arial" font-size="14.00" fill="#666666">[numeric]</text>
<polygon fill="none" stroke="#000000" points="800.5,-812.5 800.5,-842.5 1128.5,-842.5 1128.5,-812.5 800.5,-812.5"/>
<text text-anchor="start" x="807.5" y="-823.9" font-family="Arial" font-size="14.00" fill="#000000">imf_ip_5    </text>
<text text-anchor="start" x="894.5996" y="-823.9" font-family="Arial" font-size="14.00" fill="#666666">[numeric]</text>
<polygon fill="none" stroke="#000000" points="800.5,-782.5 800.5,-812.5 1128.5,-812.5 1128.5,-782.5 800.5,-782.5"/>
<text text-anchor="start" x="807.5" y="-793.9" font-family="Arial" font-size="14.00" fill="#000000">imf_ip_6    </text>
<text text-anchor="start" x="894.5996" y="-793.9" font-family="Arial" font-size="14.00" fill="#666666">[numeric]</text>
<polygon fill="none" stroke="#000000" points="800.5,-752.5 800.5,-782.5 1128.5,-782.5 1128.5,-752.5 800.5,-752.5"/>
<text text-anchor="start" x="807.5" y="-763.9" font-family="Arial" font-size="14.00" fill="#000000">imf_ip_7    </text>
<text text-anchor="start" x="894.5996" y="-763.9" font-family="Arial" font-size="14.00" fill="#666666">[numeric]</text>
<polygon fill="none" stroke="#000000" points="800.5,-722.5 800.5,-752.5 1128.5,-752.5 1128.5,-722.5 800.5,-722.5"/>
<text text-anchor="start" x="807.5" y="-733.9" font-family="Arial" font-size="14.00" fill="#000000">imf_ip_8    </text>
<text text-anchor="start" x="894.5996" y="-733.9" font-family="Arial" font-size="14.00" fill="#666666">[numeric]</text>
<polygon fill="none" stroke="#000000" points="800.5,-692.5 800.5,-722.5 1128.5,-722.5 1128.5,-692.5 800.5,-692.5"/>
<text text-anchor="start" x="807.5" y="-703.9" font-family="Arial" font-size="14.00" fill="#000000">open    </text>
<text text-anchor="start" x="872.8352" y="-703.9" font-family="Arial" font-size="14.00" fill="#666666">[numeric]</text>
<polygon fill="none" stroke="#000000" points="800.5,-662.5 800.5,-692.5 1128.5,-692.5 1128.5,-662.5 800.5,-662.5"/>
<text text-anchor="start" x="807.5" y="-673.9" font-family="Arial" font-size="14.00" fill="#000000">high    </text>
<text text-anchor="start" x="868.1592" y="-673.9" font-family="Arial" font-size="14.00" fill="#666666">[numeric]</text>
<polygon fill="none" stroke="#000000" points="800.5,-632.5 800.5,-662.5 1128.5,-662.5 1128.5,-632.5 800.5,-632.5"/>
<text text-anchor="start" x="807.5" y="-643.9" font-family="Arial" font-size="14.00" fill="#000000">low    </text>
<text text-anchor="start" x="862.7006" y="-643.9" font-family="Arial" font-size="14.00" fill="#666666">[numeric]</text>
<polygon fill="none" stroke="#000000" points="800.5,-602.5 800.5,-632.5 1128.5,-632.5 1128.5,-602.5 800.5,-602.5"/>
<text text-anchor="start" x="807.5" y="-613.9" font-family="Arial" font-size="14.00" fill="#000000">close    </text>
<text text-anchor="start" x="874.3766" y="-613.9" font-family="Arial" font-size="14.00" fill="#666666">[numeric]</text>
<polygon fill="none" stroke="#000000" points="800.5,-572.5 800.5,-602.5 1128.5,-602.5 1128.5,-572.5 800.5,-572.5"/>
<text text-anchor="start" x="807.5" y="-583.9" font-family="Arial" font-size="14.00" fill="#000000">ask    </text>
<text text-anchor="start" x="863.4874" y="-583.9" font-family="Arial" font-size="14.00" fill="#666666">[numeric]</text>
<polygon fill="none" stroke="#000000" points="800.5,-542.5 800.5,-572.5 1128.5,-572.5 1128.5,-542.5 800.5,-542.5"/>
<text text-anchor="start" x="807.5" y="-553.9" font-family="Arial" font-size="14.00" fill="#000000">bid    </text>
<text text-anchor="start" x="860.3766" y="-553.9" font-family="Arial" font-size="14.00" fill="#666666">[numeric]</text>
<polygon fill="none" stroke="#000000" points="800.5,-512.5 800.5,-542.5 1128.5,-542.5 1128.5,-512.5 800.5,-512.5"/>
<text text-anchor="start" x="807.5" y="-523.9" font-family="Arial" font-size="14.00" fill="#000000">last    </text>
<text text-anchor="start" x="863.4846" y="-523.9" font-family="Arial" font-size="14.00" fill="#666666">[numeric]</text>
</g>
<!-- public.features_202406&#45;&gt;public.instrument -->
<g id="edge3" class="edge">
<title>public.features_202406:instrument&#45;&gt;public.instrument:id</title>
<path fill="none" stroke="#000000" d="M792.4324,-1661.4022C736.2886,-1572.155 761.9066,-532.303 748.5,-470 735.1573,-407.994 758.9253,-337.5 695.5,-337.5"/>
<polygon fill="#000000" stroke="#000000" points="792.5224,-1661.4702 797.7866,-1671.0899 796.5112,-1664.4851 800.5,-1667.5 800.5,-1667.5 800.5,-1667.5 796.5112,-1664.4851 803.2134,-1663.9101 792.5224,-1661.4702 792.5224,-1661.4702"/>
<text text-anchor="start" x="534.779" y="-1677.5" font-family="Arial" font-size="10.00" fill="#000000">FOREIGN KEY (instrument) REFERENCES instrument(id)</text>
</g>
</g>
</svg>
