<?xml version="1.0" encoding="UTF-8" standalone="no"?>
<!DOCTYPE svg PUBLIC "-//W3C//DTD SVG 1.1//EN"
 "http://www.w3.org/Graphics/SVG/1.1/DTD/svg11.dtd">
<!-- Generated by graphviz version 2.40.1 (20161225.0304)
 -->
<!-- Title: public.exchange Pages: 1 -->
<svg width="457pt" height="442pt"
 viewBox="0.00 0.00 456.50 442.00" xmlns="http://www.w3.org/2000/svg" xmlns:xlink="http://www.w3.org/1999/xlink">
<g id="graph0" class="graph" transform="scale(1 1) rotate(0) translate(4 438)">
<title>public.exchange</title>
<polygon fill="#ffffff" stroke="transparent" points="-4,4 -4,-438 452.5,-438 452.5,4 -4,4"/>
<!-- public.exchange -->
<g id="node1" class="node">
<title>public.exchange</title>
<polygon fill="#efefef" stroke="transparent" points="46.5,-105.5 46.5,-140.5 317.5,-140.5 317.5,-105.5 46.5,-105.5"/>
<polygon fill="none" stroke="#000000" points="46.5,-105.5 46.5,-140.5 317.5,-140.5 317.5,-105.5 46.5,-105.5"/>
<text text-anchor="start" x="53.1928" y="-118.3" font-family="Arial Bold" font-size="18.00" fill="#000000">public.exchange</text>
<text text-anchor="start" x="183.2392" y="-118.3" font-family="Arial" font-size="14.00" fill="#000000">    </text>
<text text-anchor="start" x="217.444" y="-118.3" font-family="Arial" font-size="14.00" fill="#666666">[BASE TABLE]</text>
<polygon fill="none" stroke="#000000" points="46.5,-75.5 46.5,-105.5 317.5,-105.5 317.5,-75.5 46.5,-75.5"/>
<text text-anchor="start" x="53.5" y="-86.9" font-family="Arial" font-size="14.00" fill="#000000">id </text>
<text text-anchor="start" x="68.2798" y="-86.9" font-family="Arial" font-size="14.00" fill="#666666">[bigint]</text>
<polygon fill="none" stroke="#000000" points="46.5,-45.5 46.5,-75.5 317.5,-75.5 317.5,-45.5 46.5,-45.5"/>
<text text-anchor="start" x="53.5" y="-56.9" font-family="Arial" font-size="14.00" fill="#000000">name </text>
<text text-anchor="start" x="92.399" y="-56.9" font-family="Arial" font-size="14.00" fill="#666666">[text]</text>
<polygon fill="none" stroke="#000000" stroke-width="3" points="44.5,-44.5 44.5,-142.5 318.5,-142.5 318.5,-44.5 44.5,-44.5"/>
</g>
<!-- public.instrument -->
<g id="node2" class="node">
<title>public.instrument</title>
<polygon fill="#efefef" stroke="transparent" points="43.5,-355.5 43.5,-390.5 320.5,-390.5 320.5,-355.5 43.5,-355.5"/>
<polygon fill="none" stroke="#000000" points="43.5,-355.5 43.5,-390.5 320.5,-390.5 320.5,-355.5 43.5,-355.5"/>
<text text-anchor="start" x="50.2075" y="-368.3" font-family="Arial Bold" font-size="18.00" fill="#000000">public.instrument</text>
<text text-anchor="start" x="186.2245" y="-368.3" font-family="Arial" font-size="14.00" fill="#000000">    </text>
<text text-anchor="start" x="220.4293" y="-368.3" font-family="Arial" font-size="14.00" fill="#666666">[BASE TABLE]</text>
<polygon fill="none" stroke="#000000" points="43.5,-325.5 43.5,-355.5 320.5,-355.5 320.5,-325.5 43.5,-325.5"/>
<text text-anchor="start" x="50.5" y="-336.9" font-family="Arial" font-size="14.00" fill="#000000">id    </text>
<text text-anchor="start" x="95.594" y="-336.9" font-family="Arial" font-size="14.00" fill="#666666">[bigint]</text>
<polygon fill="none" stroke="#000000" points="43.5,-295.5 43.5,-325.5 320.5,-325.5 320.5,-295.5 43.5,-295.5"/>
<text text-anchor="start" x="50.5" y="-306.9" font-family="Arial" font-size="14.00" fill="#000000">name    </text>
<text text-anchor="start" x="119.7132" y="-306.9" font-family="Arial" font-size="14.00" fill="#666666">[text]</text>
<polygon fill="none" stroke="#000000" points="43.5,-265.5 43.5,-295.5 320.5,-295.5 320.5,-265.5 43.5,-265.5"/>
<text text-anchor="start" x="50.5" y="-276.9" font-family="Arial" font-size="14.00" fill="#000000">exchange    </text>
<text text-anchor="start" x="145.4004" y="-276.9" font-family="Arial" font-size="14.00" fill="#666666">[bigint]</text>
</g>
<!-- public.instrument&#45;&gt;public.exchange -->
<g id="edge1" class="edge">
<title>public.instrument:exchange&#45;&gt;public.exchange:id</title>
<path fill="none" stroke="#000000" d="M181.6811,-255.4384C172.0211,-200.8531 79.5583,-244.2516 46.5,-187 25.0535,-149.8583 3.6111,-90.5 46.5,-90.5"/>
<polygon fill="#000000" stroke="#000000" points="181.6887,-255.533 178.0148,-265.8651 182.0943,-260.5165 182.5,-265.5 182.5,-265.5 182.5,-265.5 182.0943,-260.5165 186.9852,-265.1349 181.6887,-255.533 181.6887,-255.533"/>
<text text-anchor="start" x="189.096" y="-275.5" font-family="Arial" font-size="10.00" fill="#000000">FOREIGN KEY (exchange) REFERENCES exchange(id)</text>
</g>
</g>
</svg>
