<?xml version="1.0" encoding="UTF-8" standalone="no"?>
<!DOCTYPE svg PUBLIC "-//W3C//DTD SVG 1.1//EN"
 "http://www.w3.org/Graphics/SVG/1.1/DTD/svg11.dtd">
<!-- Generated by graphviz version 2.40.1 (20161225.0304)
 -->
<!-- Title: public.vpin Pages: 1 -->
<svg width="804pt" height="1552pt"
 viewBox="0.00 0.00 804.00 1552.00" xmlns="http://www.w3.org/2000/svg" xmlns:xlink="http://www.w3.org/1999/xlink">
<g id="graph0" class="graph" transform="scale(1 1) rotate(0) translate(4 1548)">
<title>public.vpin</title>
<polygon fill="#ffffff" stroke="transparent" points="-4,4 -4,-1548 800,-1548 800,4 -4,4"/>
<!-- public.vpin -->
<g id="node1" class="node">
<title>public.vpin</title>
<polygon fill="#efefef" stroke="transparent" points="272,-105.5 272,-140.5 498,-140.5 498,-105.5 272,-105.5"/>
<polygon fill="none" stroke="#000000" points="272,-105.5 272,-140.5 498,-140.5 498,-105.5 272,-105.5"/>
<text text-anchor="start" x="278.7081" y="-118.3" font-family="Arial Bold" font-size="18.00" fill="#000000">public.vpin</text>
<text text-anchor="start" x="363.7239" y="-118.3" font-family="Arial" font-size="14.00" fill="#000000">    </text>
<text text-anchor="start" x="397.9287" y="-118.3" font-family="Arial" font-size="14.00" fill="#666666">[BASE TABLE]</text>
<polygon fill="none" stroke="#000000" points="272,-75.5 272,-105.5 498,-105.5 498,-75.5 272,-75.5"/>
<text text-anchor="start" x="279" y="-86.9" font-family="Arial" font-size="14.00" fill="#000000">id </text>
<text text-anchor="start" x="293.7798" y="-86.9" font-family="Arial" font-size="14.00" fill="#666666">[bigint]</text>
<polygon fill="none" stroke="#000000" points="272,-45.5 272,-75.5 498,-75.5 498,-45.5 272,-45.5"/>
<text text-anchor="start" x="279" y="-56.9" font-family="Arial" font-size="14.00" fill="#000000">threshold </text>
<text text-anchor="start" x="340.4614" y="-56.9" font-family="Arial" font-size="14.00" fill="#666666">[numeric]</text>
<polygon fill="none" stroke="#000000" stroke-width="3" points="270.5,-44.5 270.5,-142.5 499.5,-142.5 499.5,-44.5 270.5,-44.5"/>
</g>
<!-- public.vpin_ohlcv -->
<g id="node2" class="node">
<title>public.vpin_ohlcv</title>
<polygon fill="#efefef" stroke="transparent" points="43,-1045.5 43,-1080.5 321,-1080.5 321,-1045.5 43,-1045.5"/>
<polygon fill="none" stroke="#000000" points="43,-1045.5 43,-1080.5 321,-1080.5 321,-1045.5 43,-1045.5"/>
<text text-anchor="start" x="49.7017" y="-1058.3" font-family="Arial Bold" font-size="18.00" fill="#000000">public.vpin_ohlcv</text>
<text text-anchor="start" x="186.7303" y="-1058.3" font-family="Arial" font-size="14.00" fill="#000000">    </text>
<text text-anchor="start" x="220.9351" y="-1058.3" font-family="Arial" font-size="14.00" fill="#666666">[BASE TABLE]</text>
<polygon fill="none" stroke="#000000" points="43,-1015.5 43,-1045.5 321,-1045.5 321,-1015.5 43,-1015.5"/>
<text text-anchor="start" x="50" y="-1026.9" font-family="Arial" font-size="14.00" fill="#000000">id    </text>
<text text-anchor="start" x="95.094" y="-1026.9" font-family="Arial" font-size="14.00" fill="#666666">[bigint]</text>
<polygon fill="none" stroke="#000000" points="43,-985.5 43,-1015.5 321,-1015.5 321,-985.5 43,-985.5"/>
<text text-anchor="start" x="50" y="-996.9" font-family="Arial" font-size="14.00" fill="#000000">instrument    </text>
<text text-anchor="start" x="149.5442" y="-996.9" font-family="Arial" font-size="14.00" fill="#666666">[bigint]</text>
<polygon fill="none" stroke="#000000" points="43,-955.5 43,-985.5 321,-985.5 321,-955.5 43,-955.5"/>
<text text-anchor="start" x="50" y="-966.9" font-family="Arial" font-size="14.00" fill="#000000">vpin    </text>
<text text-anchor="start" x="109.8766" y="-966.9" font-family="Arial" font-size="14.00" fill="#666666">[bigint]</text>
<polygon fill="none" stroke="#000000" points="43,-925.5 43,-955.5 321,-955.5 321,-925.5 43,-925.5"/>
<text text-anchor="start" x="50" y="-936.9" font-family="Arial" font-size="14.00" fill="#000000">epoch    </text>
<text text-anchor="start" x="122.3352" y="-936.9" font-family="Arial" font-size="14.00" fill="#666666">[timestamp without time zone]</text>
<polygon fill="none" stroke="#000000" points="43,-895.5 43,-925.5 321,-925.5 321,-895.5 43,-895.5"/>
<text text-anchor="start" x="50" y="-906.9" font-family="Arial" font-size="14.00" fill="#000000">open    </text>
<text text-anchor="start" x="115.3352" y="-906.9" font-family="Arial" font-size="14.00" fill="#666666">[numeric]</text>
<polygon fill="none" stroke="#000000" points="43,-865.5 43,-895.5 321,-895.5 321,-865.5 43,-865.5"/>
<text text-anchor="start" x="50" y="-876.9" font-family="Arial" font-size="14.00" fill="#000000">high    </text>
<text text-anchor="start" x="110.6592" y="-876.9" font-family="Arial" font-size="14.00" fill="#666666">[numeric]</text>
<polygon fill="none" stroke="#000000" points="43,-835.5 43,-865.5 321,-865.5 321,-835.5 43,-835.5"/>
<text text-anchor="start" x="50" y="-846.9" font-family="Arial" font-size="14.00" fill="#000000">low    </text>
<text text-anchor="start" x="105.2006" y="-846.9" font-family="Arial" font-size="14.00" fill="#666666">[numeric]</text>
<polygon fill="none" stroke="#000000" points="43,-805.5 43,-835.5 321,-835.5 321,-805.5 43,-805.5"/>
<text text-anchor="start" x="50" y="-816.9" font-family="Arial" font-size="14.00" fill="#000000">close    </text>
<text text-anchor="start" x="116.8766" y="-816.9" font-family="Arial" font-size="14.00" fill="#666666">[numeric]</text>
<polygon fill="none" stroke="#000000" points="43,-775.5 43,-805.5 321,-805.5 321,-775.5 43,-775.5"/>
<text text-anchor="start" x="50" y="-786.9" font-family="Arial" font-size="14.00" fill="#000000">volume    </text>
<text text-anchor="start" x="129.3198" y="-786.9" font-family="Arial" font-size="14.00" fill="#666666">[numeric]</text>
<polygon fill="none" stroke="#000000" points="43,-745.5 43,-775.5 321,-775.5 321,-745.5 43,-745.5"/>
<text text-anchor="start" x="50" y="-756.9" font-family="Arial" font-size="14.00" fill="#000000">buyvolume    </text>
<text text-anchor="start" x="151.885" y="-756.9" font-family="Arial" font-size="14.00" fill="#666666">[numeric]</text>
<polygon fill="none" stroke="#000000" points="43,-715.5 43,-745.5 321,-745.5 321,-715.5 43,-715.5"/>
<text text-anchor="start" x="50" y="-726.9" font-family="Arial" font-size="14.00" fill="#000000">sellvolume    </text>
<text text-anchor="start" x="150.3156" y="-726.9" font-family="Arial" font-size="14.00" fill="#666666">[numeric]</text>
<polygon fill="none" stroke="#000000" points="43,-685.5 43,-715.5 321,-715.5 321,-685.5 43,-685.5"/>
<text text-anchor="start" x="50" y="-696.9" font-family="Arial" font-size="14.00" fill="#000000">number    </text>
<text text-anchor="start" x="131.6564" y="-696.9" font-family="Arial" font-size="14.00" fill="#666666">[bigint]</text>
</g>
<!-- public.vpin_ohlcv&#45;&gt;public.vpin -->
<g id="edge1" class="edge">
<title>public.vpin_ohlcv:vpin&#45;&gt;public.vpin:id</title>
<path fill="none" stroke="#000000" d="M330.9996,-969.6487C501.1419,-938.9904 79.68,-90.5 272,-90.5"/>
<polygon fill="#000000" stroke="#000000" points="330.964,-969.6516 320.6182,-966.0162 325.982,-970.0758 321,-970.5 321,-970.5 321,-970.5 325.982,-970.0758 321.3818,-974.9838 330.964,-969.6516 330.964,-969.6516"/>
<text text-anchor="start" x="327.613" y="-980.5" font-family="Arial" font-size="10.00" fill="#000000">FOREIGN KEY (vpin) REFERENCES vpin(id)</text>
</g>
<!-- public.features_202406 -->
<g id="node3" class="node">
<title>public.features_202406</title>
<polygon fill="#efefef" stroke="transparent" points="425,-1465.5 425,-1500.5 753,-1500.5 753,-1465.5 425,-1465.5"/>
<polygon fill="none" stroke="#000000" points="425,-1465.5 425,-1500.5 753,-1500.5 753,-1465.5 425,-1465.5"/>
<text text-anchor="start" x="431.679" y="-1478.3" font-family="Arial Bold" font-size="18.00" fill="#000000">public.features_202406</text>
<text text-anchor="start" x="618.753" y="-1478.3" font-family="Arial" font-size="14.00" fill="#000000">    </text>
<text text-anchor="start" x="652.9578" y="-1478.3" font-family="Arial" font-size="14.00" fill="#666666">[BASE TABLE]</text>
<polygon fill="none" stroke="#000000" points="425,-1435.5 425,-1465.5 753,-1465.5 753,-1435.5 425,-1435.5"/>
<text text-anchor="start" x="432" y="-1446.9" font-family="Arial" font-size="14.00" fill="#000000">id    </text>
<text text-anchor="start" x="477.094" y="-1446.9" font-family="Arial" font-size="14.00" fill="#666666">[bigint]</text>
<polygon fill="none" stroke="#000000" points="425,-1405.5 425,-1435.5 753,-1435.5 753,-1405.5 425,-1405.5"/>
<text text-anchor="start" x="432" y="-1416.9" font-family="Arial" font-size="14.00" fill="#000000">instrument    </text>
<text text-anchor="start" x="531.5442" y="-1416.9" font-family="Arial" font-size="14.00" fill="#666666">[bigint]</text>
<polygon fill="none" stroke="#000000" points="425,-1375.5 425,-1405.5 753,-1405.5 753,-1375.5 425,-1375.5"/>
<text text-anchor="start" x="432" y="-1386.9" font-family="Arial" font-size="14.00" fill="#000000">vpin    </text>
<text text-anchor="start" x="491.8766" y="-1386.9" font-family="Arial" font-size="14.00" fill="#666666">[bigint]</text>
<polygon fill="none" stroke="#000000" points="425,-1345.5 425,-1375.5 753,-1375.5 753,-1345.5 425,-1345.5"/>
<text text-anchor="start" x="432" y="-1356.9" font-family="Arial" font-size="14.00" fill="#000000">epoch    </text>
<text text-anchor="start" x="504.3352" y="-1356.9" font-family="Arial" font-size="14.00" fill="#666666">[timestamp without time zone]</text>
<polygon fill="none" stroke="#000000" points="425,-1315.5 425,-1345.5 753,-1345.5 753,-1315.5 425,-1315.5"/>
<text text-anchor="start" x="432" y="-1326.9" font-family="Arial" font-size="14.00" fill="#000000">volume    </text>
<text text-anchor="start" x="511.3198" y="-1326.9" font-family="Arial" font-size="14.00" fill="#666666">[numeric]</text>
<polygon fill="none" stroke="#000000" points="425,-1285.5 425,-1315.5 753,-1315.5 753,-1285.5 425,-1285.5"/>
<text text-anchor="start" x="432" y="-1296.9" font-family="Arial" font-size="14.00" fill="#000000">number    </text>
<text text-anchor="start" x="513.6564" y="-1296.9" font-family="Arial" font-size="14.00" fill="#666666">[bigint]</text>
<polygon fill="none" stroke="#000000" points="425,-1255.5 425,-1285.5 753,-1285.5 753,-1255.5 425,-1255.5"/>
<text text-anchor="start" x="432" y="-1266.9" font-family="Arial" font-size="14.00" fill="#000000">imf_imf_0    </text>
<text text-anchor="start" x="526.8682" y="-1266.9" font-family="Arial" font-size="14.00" fill="#666666">[numeric]</text>
<polygon fill="none" stroke="#000000" points="425,-1225.5 425,-1255.5 753,-1255.5 753,-1225.5 425,-1225.5"/>
<text text-anchor="start" x="432" y="-1236.9" font-family="Arial" font-size="14.00" fill="#000000">imf_imf_1    </text>
<text text-anchor="start" x="526.8682" y="-1236.9" font-family="Arial" font-size="14.00" fill="#666666">[numeric]</text>
<polygon fill="none" stroke="#000000" points="425,-1195.5 425,-1225.5 753,-1225.5 753,-1195.5 425,-1195.5"/>
<text text-anchor="start" x="432" y="-1206.9" font-family="Arial" font-size="14.00" fill="#000000">imf_imf_2    </text>
<text text-anchor="start" x="526.8682" y="-1206.9" font-family="Arial" font-size="14.00" fill="#666666">[numeric]</text>
<polygon fill="none" stroke="#000000" points="425,-1165.5 425,-1195.5 753,-1195.5 753,-1165.5 425,-1165.5"/>
<text text-anchor="start" x="432" y="-1176.9" font-family="Arial" font-size="14.00" fill="#000000">imf_imf_3    </text>
<text text-anchor="start" x="526.8682" y="-1176.9" font-family="Arial" font-size="14.00" fill="#666666">[numeric]</text>
<polygon fill="none" stroke="#000000" points="425,-1135.5 425,-1165.5 753,-1165.5 753,-1135.5 425,-1135.5"/>
<text text-anchor="start" x="432" y="-1146.9" font-family="Arial" font-size="14.00" fill="#000000">imf_imf_4    </text>
<text text-anchor="start" x="526.8682" y="-1146.9" font-family="Arial" font-size="14.00" fill="#666666">[numeric]</text>
<polygon fill="none" stroke="#000000" points="425,-1105.5 425,-1135.5 753,-1135.5 753,-1105.5 425,-1105.5"/>
<text text-anchor="start" x="432" y="-1116.9" font-family="Arial" font-size="14.00" fill="#000000">imf_imf_5    </text>
<text text-anchor="start" x="526.8682" y="-1116.9" font-family="Arial" font-size="14.00" fill="#666666">[numeric]</text>
<polygon fill="none" stroke="#000000" points="425,-1075.5 425,-1105.5 753,-1105.5 753,-1075.5 425,-1075.5"/>
<text text-anchor="start" x="432" y="-1086.9" font-family="Arial" font-size="14.00" fill="#000000">imf_imf_6    </text>
<text text-anchor="start" x="526.8682" y="-1086.9" font-family="Arial" font-size="14.00" fill="#666666">[numeric]</text>
<polygon fill="none" stroke="#000000" points="425,-1045.5 425,-1075.5 753,-1075.5 753,-1045.5 425,-1045.5"/>
<text text-anchor="start" x="432" y="-1056.9" font-family="Arial" font-size="14.00" fill="#000000">imf_imf_7    </text>
<text text-anchor="start" x="526.8682" y="-1056.9" font-family="Arial" font-size="14.00" fill="#666666">[numeric]</text>
<polygon fill="none" stroke="#000000" points="425,-1015.5 425,-1045.5 753,-1045.5 753,-1015.5 425,-1015.5"/>
<text text-anchor="start" x="432" y="-1026.9" font-family="Arial" font-size="14.00" fill="#000000">imf_imf_8    </text>
<text text-anchor="start" x="526.8682" y="-1026.9" font-family="Arial" font-size="14.00" fill="#666666">[numeric]</text>
<polygon fill="none" stroke="#000000" points="425,-985.5 425,-1015.5 753,-1015.5 753,-985.5 425,-985.5"/>
<text text-anchor="start" x="432" y="-996.9" font-family="Arial" font-size="14.00" fill="#000000">imf_ia_0    </text>
<text text-anchor="start" x="519.0996" y="-996.9" font-family="Arial" font-size="14.00" fill="#666666">[numeric]</text>
<polygon fill="none" stroke="#000000" points="425,-955.5 425,-985.5 753,-985.5 753,-955.5 425,-955.5"/>
<text text-anchor="start" x="432" y="-966.9" font-family="Arial" font-size="14.00" fill="#000000">imf_ia_1    </text>
<text text-anchor="start" x="519.0996" y="-966.9" font-family="Arial" font-size="14.00" fill="#666666">[numeric]</text>
<polygon fill="none" stroke="#000000" points="425,-925.5 425,-955.5 753,-955.5 753,-925.5 425,-925.5"/>
<text text-anchor="start" x="432" y="-936.9" font-family="Arial" font-size="14.00" fill="#000000">imf_ia_2    </text>
<text text-anchor="start" x="519.0996" y="-936.9" font-family="Arial" font-size="14.00" fill="#666666">[numeric]</text>
<polygon fill="none" stroke="#000000" points="425,-895.5 425,-925.5 753,-925.5 753,-895.5 425,-895.5"/>
<text text-anchor="start" x="432" y="-906.9" font-family="Arial" font-size="14.00" fill="#000000">imf_ia_3    </text>
<text text-anchor="start" x="519.0996" y="-906.9" font-family="Arial" font-size="14.00" fill="#666666">[numeric]</text>
<polygon fill="none" stroke="#000000" points="425,-865.5 425,-895.5 753,-895.5 753,-865.5 425,-865.5"/>
<text text-anchor="start" x="432" y="-876.9" font-family="Arial" font-size="14.00" fill="#000000">imf_ia_4    </text>
<text text-anchor="start" x="519.0996" y="-876.9" font-family="Arial" font-size="14.00" fill="#666666">[numeric]</text>
<polygon fill="none" stroke="#000000" points="425,-835.5 425,-865.5 753,-865.5 753,-835.5 425,-835.5"/>
<text text-anchor="start" x="432" y="-846.9" font-family="Arial" font-size="14.00" fill="#000000">imf_ia_5    </text>
<text text-anchor="start" x="519.0996" y="-846.9" font-family="Arial" font-size="14.00" fill="#666666">[numeric]</text>
<polygon fill="none" stroke="#000000" points="425,-805.5 425,-835.5 753,-835.5 753,-805.5 425,-805.5"/>
<text text-anchor="start" x="432" y="-816.9" font-family="Arial" font-size="14.00" fill="#000000">imf_ia_6    </text>
<text text-anchor="start" x="519.0996" y="-816.9" font-family="Arial" font-size="14.00" fill="#666666">[numeric]</text>
<polygon fill="none" stroke="#000000" points="425,-775.5 425,-805.5 753,-805.5 753,-775.5 425,-775.5"/>
<text text-anchor="start" x="432" y="-786.9" font-family="Arial" font-size="14.00" fill="#000000">imf_ia_7    </text>
<text text-anchor="start" x="519.0996" y="-786.9" font-family="Arial" font-size="14.00" fill="#666666">[numeric]</text>
<polygon fill="none" stroke="#000000" points="425,-745.5 425,-775.5 753,-775.5 753,-745.5 425,-745.5"/>
<text text-anchor="start" x="432" y="-756.9" font-family="Arial" font-size="14.00" fill="#000000">imf_ia_8    </text>
<text text-anchor="start" x="519.0996" y="-756.9" font-family="Arial" font-size="14.00" fill="#666666">[numeric]</text>
<polygon fill="none" stroke="#000000" points="425,-715.5 425,-745.5 753,-745.5 753,-715.5 425,-715.5"/>
<text text-anchor="start" x="432" y="-726.9" font-family="Arial" font-size="14.00" fill="#000000">imf_ip_0    </text>
<text text-anchor="start" x="519.0996" y="-726.9" font-family="Arial" font-size="14.00" fill="#666666">[numeric]</text>
<polygon fill="none" stroke="#000000" points="425,-685.5 425,-715.5 753,-715.5 753,-685.5 425,-685.5"/>
<text text-anchor="start" x="432" y="-696.9" font-family="Arial" font-size="14.00" fill="#000000">imf_ip_1    </text>
<text text-anchor="start" x="519.0996" y="-696.9" font-family="Arial" font-size="14.00" fill="#666666">[numeric]</text>
<polygon fill="none" stroke="#000000" points="425,-655.5 425,-685.5 753,-685.5 753,-655.5 425,-655.5"/>
<text text-anchor="start" x="432" y="-666.9" font-family="Arial" font-size="14.00" fill="#000000">imf_ip_2    </text>
<text text-anchor="start" x="519.0996" y="-666.9" font-family="Arial" font-size="14.00" fill="#666666">[numeric]</text>
<polygon fill="none" stroke="#000000" points="425,-625.5 425,-655.5 753,-655.5 753,-625.5 425,-625.5"/>
<text text-anchor="start" x="432" y="-636.9" font-family="Arial" font-size="14.00" fill="#000000">imf_ip_3    </text>
<text text-anchor="start" x="519.0996" y="-636.9" font-family="Arial" font-size="14.00" fill="#666666">[numeric]</text>
<polygon fill="none" stroke="#000000" points="425,-595.5 425,-625.5 753,-625.5 753,-595.5 425,-595.5"/>
<text text-anchor="start" x="432" y="-606.9" font-family="Arial" font-size="14.00" fill="#000000">imf_ip_4    </text>
<text text-anchor="start" x="519.0996" y="-606.9" font-family="Arial" font-size="14.00" fill="#666666">[numeric]</text>
<polygon fill="none" stroke="#000000" points="425,-565.5 425,-595.5 753,-595.5 753,-565.5 425,-565.5"/>
<text text-anchor="start" x="432" y="-576.9" font-family="Arial" font-size="14.00" fill="#000000">imf_ip_5    </text>
<text text-anchor="start" x="519.0996" y="-576.9" font-family="Arial" font-size="14.00" fill="#666666">[numeric]</text>
<polygon fill="none" stroke="#000000" points="425,-535.5 425,-565.5 753,-565.5 753,-535.5 425,-535.5"/>
<text text-anchor="start" x="432" y="-546.9" font-family="Arial" font-size="14.00" fill="#000000">imf_ip_6    </text>
<text text-anchor="start" x="519.0996" y="-546.9" font-family="Arial" font-size="14.00" fill="#666666">[numeric]</text>
<polygon fill="none" stroke="#000000" points="425,-505.5 425,-535.5 753,-535.5 753,-505.5 425,-505.5"/>
<text text-anchor="start" x="432" y="-516.9" font-family="Arial" font-size="14.00" fill="#000000">imf_ip_7    </text>
<text text-anchor="start" x="519.0996" y="-516.9" font-family="Arial" font-size="14.00" fill="#666666">[numeric]</text>
<polygon fill="none" stroke="#000000" points="425,-475.5 425,-505.5 753,-505.5 753,-475.5 425,-475.5"/>
<text text-anchor="start" x="432" y="-486.9" font-family="Arial" font-size="14.00" fill="#000000">imf_ip_8    </text>
<text text-anchor="start" x="519.0996" y="-486.9" font-family="Arial" font-size="14.00" fill="#666666">[numeric]</text>
<polygon fill="none" stroke="#000000" points="425,-445.5 425,-475.5 753,-475.5 753,-445.5 425,-445.5"/>
<text text-anchor="start" x="432" y="-456.9" font-family="Arial" font-size="14.00" fill="#000000">open    </text>
<text text-anchor="start" x="497.3352" y="-456.9" font-family="Arial" font-size="14.00" fill="#666666">[numeric]</text>
<polygon fill="none" stroke="#000000" points="425,-415.5 425,-445.5 753,-445.5 753,-415.5 425,-415.5"/>
<text text-anchor="start" x="432" y="-426.9" font-family="Arial" font-size="14.00" fill="#000000">high    </text>
<text text-anchor="start" x="492.6592" y="-426.9" font-family="Arial" font-size="14.00" fill="#666666">[numeric]</text>
<polygon fill="none" stroke="#000000" points="425,-385.5 425,-415.5 753,-415.5 753,-385.5 425,-385.5"/>
<text text-anchor="start" x="432" y="-396.9" font-family="Arial" font-size="14.00" fill="#000000">low    </text>
<text text-anchor="start" x="487.2006" y="-396.9" font-family="Arial" font-size="14.00" fill="#666666">[numeric]</text>
<polygon fill="none" stroke="#000000" points="425,-355.5 425,-385.5 753,-385.5 753,-355.5 425,-355.5"/>
<text text-anchor="start" x="432" y="-366.9" font-family="Arial" font-size="14.00" fill="#000000">close    </text>
<text text-anchor="start" x="498.8766" y="-366.9" font-family="Arial" font-size="14.00" fill="#666666">[numeric]</text>
<polygon fill="none" stroke="#000000" points="425,-325.5 425,-355.5 753,-355.5 753,-325.5 425,-325.5"/>
<text text-anchor="start" x="432" y="-336.9" font-family="Arial" font-size="14.00" fill="#000000">ask    </text>
<text text-anchor="start" x="487.9874" y="-336.9" font-family="Arial" font-size="14.00" fill="#666666">[numeric]</text>
<polygon fill="none" stroke="#000000" points="425,-295.5 425,-325.5 753,-325.5 753,-295.5 425,-295.5"/>
<text text-anchor="start" x="432" y="-306.9" font-family="Arial" font-size="14.00" fill="#000000">bid    </text>
<text text-anchor="start" x="484.8766" y="-306.9" font-family="Arial" font-size="14.00" fill="#666666">[numeric]</text>
<polygon fill="none" stroke="#000000" points="425,-265.5 425,-295.5 753,-295.5 753,-265.5 425,-265.5"/>
<text text-anchor="start" x="432" y="-276.9" font-family="Arial" font-size="14.00" fill="#000000">last    </text>
<text text-anchor="start" x="487.9846" y="-276.9" font-family="Arial" font-size="14.00" fill="#666666">[numeric]</text>
</g>
<!-- public.features_202406&#45;&gt;public.vpin -->
<g id="edge2" class="edge">
<title>public.features_202406:vpin&#45;&gt;public.vpin:id</title>
<path fill="none" stroke="#000000" d="M416.9943,-1384.2393C362.8363,-1294.7707 392.2542,-275.6597 425,-223 444.1029,-192.2799 478.8971,-217.7201 498,-187 520.6482,-150.5786 540.8889,-90.5 498,-90.5"/>
<polygon fill="#000000" stroke="#000000" points="417.1227,-1384.3397 422.2279,-1394.0448 421.0614,-1387.4198 425,-1390.5 425,-1390.5 425,-1390.5 421.0614,-1387.4198 427.7721,-1386.9552 417.1227,-1384.3397 417.1227,-1384.3397"/>
<text text-anchor="start" x="215.613" y="-1400.5" font-family="Arial" font-size="10.00" fill="#000000">FOREIGN KEY (vpin) REFERENCES vpin(id)</text>
</g>
</g>
</svg>
