<?xml version="1.0" encoding="UTF-8" standalone="no"?>
<!DOCTYPE svg PUBLIC "-//W3C//DTD SVG 1.1//EN"
 "http://www.w3.org/Graphics/SVG/1.1/DTD/svg11.dtd">
<!-- Generated by graphviz version 2.40.1 (20161225.0304)
 -->
<!-- Title: db Pages: 1 -->
<svg width="1797pt" height="1763pt"
 viewBox="0.00 0.00 1797.00 1763.00" xmlns="http://www.w3.org/2000/svg" xmlns:xlink="http://www.w3.org/1999/xlink">
<g id="graph0" class="graph" transform="scale(1 1) rotate(0) translate(4 1759)">
<title>db</title>
<polygon fill="#ffffff" stroke="transparent" points="-4,4 -4,-1759 1793,-1759 1793,4 -4,4"/>
<!-- public.goose_db_version -->
<g id="node1" class="node">
<title>public.goose_db_version</title>
<polygon fill="#efefef" stroke="transparent" points="43,-1151.5 43,-1186.5 383,-1186.5 383,-1151.5 43,-1151.5"/>
<polygon fill="none" stroke="#000000" points="43,-1151.5 43,-1186.5 383,-1186.5 383,-1151.5 43,-1151.5"/>
<text text-anchor="start" x="49.6841" y="-1164.3" font-family="Arial Bold" font-size="18.00" fill="#000000">public.goose_db_version</text>
<text text-anchor="start" x="248.7479" y="-1164.3" font-family="Arial" font-size="14.00" fill="#000000">    </text>
<text text-anchor="start" x="282.9527" y="-1164.3" font-family="Arial" font-size="14.00" fill="#666666">[BASE TABLE]</text>
<polygon fill="none" stroke="#000000" points="43,-1121.5 43,-1151.5 383,-1151.5 383,-1121.5 43,-1121.5"/>
<text text-anchor="start" x="50" y="-1132.9" font-family="Arial" font-size="14.00" fill="#000000">id    </text>
<text text-anchor="start" x="95.094" y="-1132.9" font-family="Arial" font-size="14.00" fill="#666666">[integer]</text>
<polygon fill="none" stroke="#000000" points="43,-1091.5 43,-1121.5 383,-1121.5 383,-1091.5 43,-1091.5"/>
<text text-anchor="start" x="50" y="-1102.9" font-family="Arial" font-size="14.00" fill="#000000">version_id    </text>
<text text-anchor="start" x="147.9916" y="-1102.9" font-family="Arial" font-size="14.00" fill="#666666">[bigint]</text>
<polygon fill="none" stroke="#000000" points="43,-1061.5 43,-1091.5 383,-1091.5 383,-1061.5 43,-1061.5"/>
<text text-anchor="start" x="50" y="-1072.9" font-family="Arial" font-size="14.00" fill="#000000">is_applied    </text>
<text text-anchor="start" x="147.2202" y="-1072.9" font-family="Arial" font-size="14.00" fill="#666666">[boolean]</text>
<polygon fill="none" stroke="#000000" points="43,-1031.5 43,-1061.5 383,-1061.5 383,-1031.5 43,-1031.5"/>
<text text-anchor="start" x="50" y="-1042.9" font-family="Arial" font-size="14.00" fill="#000000">tstamp    </text>
<text text-anchor="start" x="126.2118" y="-1042.9" font-family="Arial" font-size="14.00" fill="#666666">[timestamp without time zone]</text>
</g>
<!-- public.exchange -->
<g id="node2" class="node">
<title>public.exchange</title>
<polygon fill="#efefef" stroke="transparent" points="891,-102.5 891,-137.5 1162,-137.5 1162,-102.5 891,-102.5"/>
<polygon fill="none" stroke="#000000" points="891,-102.5 891,-137.5 1162,-137.5 1162,-102.5 891,-102.5"/>
<text text-anchor="start" x="897.6928" y="-115.3" font-family="Arial Bold" font-size="18.00" fill="#000000">public.exchange</text>
<text text-anchor="start" x="1027.7392" y="-115.3" font-family="Arial" font-size="14.00" fill="#000000">    </text>
<text text-anchor="start" x="1061.944" y="-115.3" font-family="Arial" font-size="14.00" fill="#666666">[BASE TABLE]</text>
<polygon fill="none" stroke="#000000" points="891,-72.5 891,-102.5 1162,-102.5 1162,-72.5 891,-72.5"/>
<text text-anchor="start" x="898" y="-83.9" font-family="Arial" font-size="14.00" fill="#000000">id    </text>
<text text-anchor="start" x="943.094" y="-83.9" font-family="Arial" font-size="14.00" fill="#666666">[bigint]</text>
<polygon fill="none" stroke="#000000" points="891,-42.5 891,-72.5 1162,-72.5 1162,-42.5 891,-42.5"/>
<text text-anchor="start" x="898" y="-53.9" font-family="Arial" font-size="14.00" fill="#000000">name    </text>
<text text-anchor="start" x="967.2132" y="-53.9" font-family="Arial" font-size="14.00" fill="#666666">[text]</text>
</g>
<!-- public.instrument -->
<g id="node3" class="node">
<title>public.instrument</title>
<polygon fill="#efefef" stroke="transparent" points="888,-349.5 888,-384.5 1165,-384.5 1165,-349.5 888,-349.5"/>
<polygon fill="none" stroke="#000000" points="888,-349.5 888,-384.5 1165,-384.5 1165,-349.5 888,-349.5"/>
<text text-anchor="start" x="894.7075" y="-362.3" font-family="Arial Bold" font-size="18.00" fill="#000000">public.instrument</text>
<text text-anchor="start" x="1030.7245" y="-362.3" font-family="Arial" font-size="14.00" fill="#000000">    </text>
<text text-anchor="start" x="1064.9293" y="-362.3" font-family="Arial" font-size="14.00" fill="#666666">[BASE TABLE]</text>
<polygon fill="none" stroke="#000000" points="888,-319.5 888,-349.5 1165,-349.5 1165,-319.5 888,-319.5"/>
<text text-anchor="start" x="895" y="-330.9" font-family="Arial" font-size="14.00" fill="#000000">id    </text>
<text text-anchor="start" x="940.094" y="-330.9" font-family="Arial" font-size="14.00" fill="#666666">[bigint]</text>
<polygon fill="none" stroke="#000000" points="888,-289.5 888,-319.5 1165,-319.5 1165,-289.5 888,-289.5"/>
<text text-anchor="start" x="895" y="-300.9" font-family="Arial" font-size="14.00" fill="#000000">name    </text>
<text text-anchor="start" x="964.2132" y="-300.9" font-family="Arial" font-size="14.00" fill="#666666">[text]</text>
<polygon fill="none" stroke="#000000" points="888,-259.5 888,-289.5 1165,-289.5 1165,-259.5 888,-259.5"/>
<text text-anchor="start" x="895" y="-270.9" font-family="Arial" font-size="14.00" fill="#000000">exchange    </text>
<text text-anchor="start" x="989.9004" y="-270.9" font-family="Arial" font-size="14.00" fill="#666666">[bigint]</text>
</g>
<!-- public.instrument&#45;&gt;public.exchange -->
<g id="edge1" class="edge">
<title>public.instrument:exchange&#45;&gt;public.exchange:id</title>
<path fill="none" stroke="#000000" d="M1026.1811,-249.4384C1016.5211,-194.8531 924.0583,-238.2516 891,-181 870.2203,-145.013 849.4444,-87.5 891,-87.5"/>
<polygon fill="#000000" stroke="#000000" points="1026.1887,-249.533 1022.5148,-259.8651 1026.5943,-254.5165 1027,-259.5 1027,-259.5 1027,-259.5 1026.5943,-254.5165 1031.4852,-259.1349 1026.1887,-249.533 1026.1887,-249.533"/>
<text text-anchor="start" x="767.596" y="-269.5" font-family="Arial" font-size="10.00" fill="#000000">FOREIGN KEY (exchange) REFERENCES exchange(id)</text>
</g>
<!-- public.ohlcv -->
<g id="node4" class="node">
<title>public.ohlcv</title>
<polygon fill="#efefef" stroke="transparent" points="488,-1211.5 488,-1246.5 759,-1246.5 759,-1211.5 488,-1211.5"/>
<polygon fill="none" stroke="#000000" points="488,-1211.5 488,-1246.5 759,-1246.5 759,-1211.5 488,-1211.5"/>
<text text-anchor="start" x="512.7081" y="-1224.3" font-family="Arial Bold" font-size="18.00" fill="#000000">public.ohlcv</text>
<text text-anchor="start" x="606.7239" y="-1224.3" font-family="Arial" font-size="14.00" fill="#000000">    </text>
<text text-anchor="start" x="640.9287" y="-1224.3" font-family="Arial" font-size="14.00" fill="#666666">[BASE TABLE]</text>
<polygon fill="none" stroke="#000000" points="488,-1181.5 488,-1211.5 759,-1211.5 759,-1181.5 488,-1181.5"/>
<text text-anchor="start" x="495" y="-1192.9" font-family="Arial" font-size="14.00" fill="#000000">instrument    </text>
<text text-anchor="start" x="594.5442" y="-1192.9" font-family="Arial" font-size="14.00" fill="#666666">[bigint]</text>
<polygon fill="none" stroke="#000000" points="488,-1151.5 488,-1181.5 759,-1181.5 759,-1151.5 488,-1151.5"/>
<text text-anchor="start" x="494.7623" y="-1162.9" font-family="Arial" font-size="14.00" fill="#000000">epoch    </text>
<text text-anchor="start" x="567.0975" y="-1162.9" font-family="Arial" font-size="14.00" fill="#666666">[timestamp without time zone]</text>
<polygon fill="none" stroke="#000000" points="488,-1121.5 488,-1151.5 759,-1151.5 759,-1121.5 488,-1121.5"/>
<text text-anchor="start" x="495" y="-1132.9" font-family="Arial" font-size="14.00" fill="#000000">open    </text>
<text text-anchor="start" x="560.3352" y="-1132.9" font-family="Arial" font-size="14.00" fill="#666666">[numeric]</text>
<polygon fill="none" stroke="#000000" points="488,-1091.5 488,-1121.5 759,-1121.5 759,-1091.5 488,-1091.5"/>
<text text-anchor="start" x="495" y="-1102.9" font-family="Arial" font-size="14.00" fill="#000000">high    </text>
<text text-anchor="start" x="555.6592" y="-1102.9" font-family="Arial" font-size="14.00" fill="#666666">[numeric]</text>
<polygon fill="none" stroke="#000000" points="488,-1061.5 488,-1091.5 759,-1091.5 759,-1061.5 488,-1061.5"/>
<text text-anchor="start" x="495" y="-1072.9" font-family="Arial" font-size="14.00" fill="#000000">low    </text>
<text text-anchor="start" x="550.2006" y="-1072.9" font-family="Arial" font-size="14.00" fill="#666666">[numeric]</text>
<polygon fill="none" stroke="#000000" points="488,-1031.5 488,-1061.5 759,-1061.5 759,-1031.5 488,-1031.5"/>
<text text-anchor="start" x="495" y="-1042.9" font-family="Arial" font-size="14.00" fill="#000000">close    </text>
<text text-anchor="start" x="561.8766" y="-1042.9" font-family="Arial" font-size="14.00" fill="#666666">[numeric]</text>
<polygon fill="none" stroke="#000000" points="488,-1001.5 488,-1031.5 759,-1031.5 759,-1001.5 488,-1001.5"/>
<text text-anchor="start" x="495" y="-1012.9" font-family="Arial" font-size="14.00" fill="#000000">volume    </text>
<text text-anchor="start" x="574.3198" y="-1012.9" font-family="Arial" font-size="14.00" fill="#666666">[numeric]</text>
<polygon fill="none" stroke="#000000" points="488,-971.5 488,-1001.5 759,-1001.5 759,-971.5 488,-971.5"/>
<text text-anchor="start" x="495" y="-982.9" font-family="Arial" font-size="14.00" fill="#000000">number    </text>
<text text-anchor="start" x="576.6564" y="-982.9" font-family="Arial" font-size="14.00" fill="#666666">[bigint]</text>
</g>
<!-- public.ohlcv&#45;&gt;public.instrument -->
<g id="edge2" class="edge">
<title>public.ohlcv:instrument&#45;&gt;public.instrument:id</title>
<path fill="none" stroke="#000000" d="M768.7839,-1192.9717C836.0986,-1141.3069 787.6511,-538.5153 811,-464 831.022,-400.1022 821.0388,-334.5 888,-334.5"/>
<polygon fill="#000000" stroke="#000000" points="768.407,-1193.1075 757.4734,-1192.2668 763.7035,-1194.8038 759,-1196.5 759,-1196.5 759,-1196.5 763.7035,-1194.8038 760.5266,-1200.7332 768.407,-1193.1075 768.407,-1193.1075"/>
<text text-anchor="start" x="629.779" y="-1180.5" font-family="Arial" font-size="10.00" fill="#000000">FOREIGN KEY (instrument) REFERENCES instrument(id)</text>
</g>
<!-- public.vpin -->
<g id="node5" class="node">
<title>public.vpin</title>
<polygon fill="#efefef" stroke="transparent" points="1321,-334.5 1321,-369.5 1547,-369.5 1547,-334.5 1321,-334.5"/>
<polygon fill="none" stroke="#000000" points="1321,-334.5 1321,-369.5 1547,-369.5 1547,-334.5 1321,-334.5"/>
<text text-anchor="start" x="1327.7081" y="-347.3" font-family="Arial Bold" font-size="18.00" fill="#000000">public.vpin</text>
<text text-anchor="start" x="1412.7239" y="-347.3" font-family="Arial" font-size="14.00" fill="#000000">    </text>
<text text-anchor="start" x="1446.9287" y="-347.3" font-family="Arial" font-size="14.00" fill="#666666">[BASE TABLE]</text>
<polygon fill="none" stroke="#000000" points="1321,-304.5 1321,-334.5 1547,-334.5 1547,-304.5 1321,-304.5"/>
<text text-anchor="start" x="1328" y="-315.9" font-family="Arial" font-size="14.00" fill="#000000">id    </text>
<text text-anchor="start" x="1373.094" y="-315.9" font-family="Arial" font-size="14.00" fill="#666666">[bigint]</text>
<polygon fill="none" stroke="#000000" points="1321,-274.5 1321,-304.5 1547,-304.5 1547,-274.5 1321,-274.5"/>
<text text-anchor="start" x="1328" y="-285.9" font-family="Arial" font-size="14.00" fill="#000000">threshold    </text>
<text text-anchor="start" x="1419.7756" y="-285.9" font-family="Arial" font-size="14.00" fill="#666666">[numeric]</text>
</g>
<!-- public.vpin_ohlcv -->
<g id="node6" class="node">
<title>public.vpin_ohlcv</title>
<polygon fill="#efefef" stroke="transparent" points="1295,-1256.5 1295,-1291.5 1573,-1291.5 1573,-1256.5 1295,-1256.5"/>
<polygon fill="none" stroke="#000000" points="1295,-1256.5 1295,-1291.5 1573,-1291.5 1573,-1256.5 1295,-1256.5"/>
<text text-anchor="start" x="1301.7017" y="-1269.3" font-family="Arial Bold" font-size="18.00" fill="#000000">public.vpin_ohlcv</text>
<text text-anchor="start" x="1438.7303" y="-1269.3" font-family="Arial" font-size="14.00" fill="#000000">    </text>
<text text-anchor="start" x="1472.9351" y="-1269.3" font-family="Arial" font-size="14.00" fill="#666666">[BASE TABLE]</text>
<polygon fill="none" stroke="#000000" points="1295,-1226.5 1295,-1256.5 1573,-1256.5 1573,-1226.5 1295,-1226.5"/>
<text text-anchor="start" x="1302" y="-1237.9" font-family="Arial" font-size="14.00" fill="#000000">instrument    </text>
<text text-anchor="start" x="1401.5442" y="-1237.9" font-family="Arial" font-size="14.00" fill="#666666">[bigint]</text>
<polygon fill="none" stroke="#000000" points="1295,-1196.5 1295,-1226.5 1573,-1226.5 1573,-1196.5 1295,-1196.5"/>
<text text-anchor="start" x="1302" y="-1207.9" font-family="Arial" font-size="14.00" fill="#000000">vpin    </text>
<text text-anchor="start" x="1361.8766" y="-1207.9" font-family="Arial" font-size="14.00" fill="#666666">[bigint]</text>
<polygon fill="none" stroke="#000000" points="1295,-1166.5 1295,-1196.5 1573,-1196.5 1573,-1166.5 1295,-1166.5"/>
<text text-anchor="start" x="1302" y="-1177.9" font-family="Arial" font-size="14.00" fill="#000000">epoch    </text>
<text text-anchor="start" x="1374.3352" y="-1177.9" font-family="Arial" font-size="14.00" fill="#666666">[timestamp without time zone]</text>
<polygon fill="none" stroke="#000000" points="1295,-1136.5 1295,-1166.5 1573,-1166.5 1573,-1136.5 1295,-1136.5"/>
<text text-anchor="start" x="1302" y="-1147.9" font-family="Arial" font-size="14.00" fill="#000000">open    </text>
<text text-anchor="start" x="1367.3352" y="-1147.9" font-family="Arial" font-size="14.00" fill="#666666">[numeric]</text>
<polygon fill="none" stroke="#000000" points="1295,-1106.5 1295,-1136.5 1573,-1136.5 1573,-1106.5 1295,-1106.5"/>
<text text-anchor="start" x="1302" y="-1117.9" font-family="Arial" font-size="14.00" fill="#000000">high    </text>
<text text-anchor="start" x="1362.6592" y="-1117.9" font-family="Arial" font-size="14.00" fill="#666666">[numeric]</text>
<polygon fill="none" stroke="#000000" points="1295,-1076.5 1295,-1106.5 1573,-1106.5 1573,-1076.5 1295,-1076.5"/>
<text text-anchor="start" x="1302" y="-1087.9" font-family="Arial" font-size="14.00" fill="#000000">low    </text>
<text text-anchor="start" x="1357.2006" y="-1087.9" font-family="Arial" font-size="14.00" fill="#666666">[numeric]</text>
<polygon fill="none" stroke="#000000" points="1295,-1046.5 1295,-1076.5 1573,-1076.5 1573,-1046.5 1295,-1046.5"/>
<text text-anchor="start" x="1302" y="-1057.9" font-family="Arial" font-size="14.00" fill="#000000">close    </text>
<text text-anchor="start" x="1368.8766" y="-1057.9" font-family="Arial" font-size="14.00" fill="#666666">[numeric]</text>
<polygon fill="none" stroke="#000000" points="1295,-1016.5 1295,-1046.5 1573,-1046.5 1573,-1016.5 1295,-1016.5"/>
<text text-anchor="start" x="1302" y="-1027.9" font-family="Arial" font-size="14.00" fill="#000000">volume    </text>
<text text-anchor="start" x="1381.3198" y="-1027.9" font-family="Arial" font-size="14.00" fill="#666666">[numeric]</text>
<polygon fill="none" stroke="#000000" points="1295,-986.5 1295,-1016.5 1573,-1016.5 1573,-986.5 1295,-986.5"/>
<text text-anchor="start" x="1302" y="-997.9" font-family="Arial" font-size="14.00" fill="#000000">buyvolume    </text>
<text text-anchor="start" x="1403.885" y="-997.9" font-family="Arial" font-size="14.00" fill="#666666">[numeric]</text>
<polygon fill="none" stroke="#000000" points="1295,-956.5 1295,-986.5 1573,-986.5 1573,-956.5 1295,-956.5"/>
<text text-anchor="start" x="1302" y="-967.9" font-family="Arial" font-size="14.00" fill="#000000">sellvolume    </text>
<text text-anchor="start" x="1402.3156" y="-967.9" font-family="Arial" font-size="14.00" fill="#666666">[numeric]</text>
<polygon fill="none" stroke="#000000" points="1295,-926.5 1295,-956.5 1573,-956.5 1573,-926.5 1295,-926.5"/>
<text text-anchor="start" x="1302" y="-937.9" font-family="Arial" font-size="14.00" fill="#000000">number    </text>
<text text-anchor="start" x="1383.6564" y="-937.9" font-family="Arial" font-size="14.00" fill="#666666">[numeric]</text>
</g>
<!-- public.vpin_ohlcv&#45;&gt;public.instrument -->
<g id="edge3" class="edge">
<title>public.vpin_ohlcv:instrument&#45;&gt;public.instrument:id</title>
<path fill="none" stroke="#000000" d="M1285.0727,-1238.0831C1213.2385,-1185.5266 1267.8901,-543.2122 1243,-464 1222.8586,-399.9005 1232.1894,-334.5 1165,-334.5"/>
<polygon fill="#000000" stroke="#000000" points="1285.5444,-1238.2454 1293.5354,-1245.755 1290.2722,-1239.8727 1295,-1241.5 1295,-1241.5 1295,-1241.5 1290.2722,-1239.8727 1296.4646,-1237.245 1285.5444,-1238.2454 1285.5444,-1238.2454"/>
<text text-anchor="start" x="1302.279" y="-1251.5" font-family="Arial" font-size="10.00" fill="#000000">FOREIGN KEY (instrument) REFERENCES instrument(id)</text>
</g>
<!-- public.vpin_ohlcv&#45;&gt;public.vpin -->
<g id="edge4" class="edge">
<title>public.vpin_ohlcv:vpin&#45;&gt;public.vpin:id</title>
<path fill="none" stroke="#000000" d="M1582.7305,-1208.445C1670.2904,-1151.5655 1642.7642,-319.5 1547,-319.5"/>
<polygon fill="#000000" stroke="#000000" points="1582.5408,-1208.5045 1571.652,-1207.2066 1577.7704,-1210.0022 1573,-1211.5 1573,-1211.5 1573,-1211.5 1577.7704,-1210.0022 1574.348,-1215.7934 1582.5408,-1208.5045 1582.5408,-1208.5045"/>
<text text-anchor="start" x="1579.613" y="-1221.5" font-family="Arial" font-size="10.00" fill="#000000">FOREIGN KEY (vpin) REFERENCES vpin(id)</text>
</g>
<!-- public.features_202406 -->
<g id="node7" class="node">
<title>public.features_202406</title>
<polygon fill="#efefef" stroke="transparent" points="863,-1676.5 863,-1711.5 1191,-1711.5 1191,-1676.5 863,-1676.5"/>
<polygon fill="none" stroke="#000000" points="863,-1676.5 863,-1711.5 1191,-1711.5 1191,-1676.5 863,-1676.5"/>
<text text-anchor="start" x="869.679" y="-1689.3" font-family="Arial Bold" font-size="18.00" fill="#000000">public.features_202406</text>
<text text-anchor="start" x="1056.753" y="-1689.3" font-family="Arial" font-size="14.00" fill="#000000">    </text>
<text text-anchor="start" x="1090.9578" y="-1689.3" font-family="Arial" font-size="14.00" fill="#666666">[BASE TABLE]</text>
<polygon fill="none" stroke="#000000" points="863,-1646.5 863,-1676.5 1191,-1676.5 1191,-1646.5 863,-1646.5"/>
<text text-anchor="start" x="870" y="-1657.9" font-family="Arial" font-size="14.00" fill="#000000">instrument    </text>
<text text-anchor="start" x="969.5442" y="-1657.9" font-family="Arial" font-size="14.00" fill="#666666">[bigint]</text>
<polygon fill="none" stroke="#000000" points="863,-1616.5 863,-1646.5 1191,-1646.5 1191,-1616.5 863,-1616.5"/>
<text text-anchor="start" x="870" y="-1627.9" font-family="Arial" font-size="14.00" fill="#000000">vpin    </text>
<text text-anchor="start" x="929.8766" y="-1627.9" font-family="Arial" font-size="14.00" fill="#666666">[bigint]</text>
<polygon fill="none" stroke="#000000" points="863,-1586.5 863,-1616.5 1191,-1616.5 1191,-1586.5 863,-1586.5"/>
<text text-anchor="start" x="870" y="-1597.9" font-family="Arial" font-size="14.00" fill="#000000">epoch    </text>
<text text-anchor="start" x="942.3352" y="-1597.9" font-family="Arial" font-size="14.00" fill="#666666">[timestamp without time zone]</text>
<polygon fill="none" stroke="#000000" points="863,-1556.5 863,-1586.5 1191,-1586.5 1191,-1556.5 863,-1556.5"/>
<text text-anchor="start" x="870" y="-1567.9" font-family="Arial" font-size="14.00" fill="#000000">volume    </text>
<text text-anchor="start" x="949.3198" y="-1567.9" font-family="Arial" font-size="14.00" fill="#666666">[numeric]</text>
<polygon fill="none" stroke="#000000" points="863,-1526.5 863,-1556.5 1191,-1556.5 1191,-1526.5 863,-1526.5"/>
<text text-anchor="start" x="870" y="-1537.9" font-family="Arial" font-size="14.00" fill="#000000">number    </text>
<text text-anchor="start" x="951.6564" y="-1537.9" font-family="Arial" font-size="14.00" fill="#666666">[numeric]</text>
<polygon fill="none" stroke="#000000" points="863,-1496.5 863,-1526.5 1191,-1526.5 1191,-1496.5 863,-1496.5"/>
<text text-anchor="start" x="870" y="-1507.9" font-family="Arial" font-size="14.00" fill="#000000">imf_imf_0    </text>
<text text-anchor="start" x="964.8682" y="-1507.9" font-family="Arial" font-size="14.00" fill="#666666">[numeric]</text>
<polygon fill="none" stroke="#000000" points="863,-1466.5 863,-1496.5 1191,-1496.5 1191,-1466.5 863,-1466.5"/>
<text text-anchor="start" x="870" y="-1477.9" font-family="Arial" font-size="14.00" fill="#000000">imf_imf_1    </text>
<text text-anchor="start" x="964.8682" y="-1477.9" font-family="Arial" font-size="14.00" fill="#666666">[numeric]</text>
<polygon fill="none" stroke="#000000" points="863,-1436.5 863,-1466.5 1191,-1466.5 1191,-1436.5 863,-1436.5"/>
<text text-anchor="start" x="870" y="-1447.9" font-family="Arial" font-size="14.00" fill="#000000">imf_imf_2    </text>
<text text-anchor="start" x="964.8682" y="-1447.9" font-family="Arial" font-size="14.00" fill="#666666">[numeric]</text>
<polygon fill="none" stroke="#000000" points="863,-1406.5 863,-1436.5 1191,-1436.5 1191,-1406.5 863,-1406.5"/>
<text text-anchor="start" x="870" y="-1417.9" font-family="Arial" font-size="14.00" fill="#000000">imf_imf_3    </text>
<text text-anchor="start" x="964.8682" y="-1417.9" font-family="Arial" font-size="14.00" fill="#666666">[numeric]</text>
<polygon fill="none" stroke="#000000" points="863,-1376.5 863,-1406.5 1191,-1406.5 1191,-1376.5 863,-1376.5"/>
<text text-anchor="start" x="870" y="-1387.9" font-family="Arial" font-size="14.00" fill="#000000">imf_imf_4    </text>
<text text-anchor="start" x="964.8682" y="-1387.9" font-family="Arial" font-size="14.00" fill="#666666">[numeric]</text>
<polygon fill="none" stroke="#000000" points="863,-1346.5 863,-1376.5 1191,-1376.5 1191,-1346.5 863,-1346.5"/>
<text text-anchor="start" x="870" y="-1357.9" font-family="Arial" font-size="14.00" fill="#000000">imf_imf_5    </text>
<text text-anchor="start" x="964.8682" y="-1357.9" font-family="Arial" font-size="14.00" fill="#666666">[numeric]</text>
<polygon fill="none" stroke="#000000" points="863,-1316.5 863,-1346.5 1191,-1346.5 1191,-1316.5 863,-1316.5"/>
<text text-anchor="start" x="870" y="-1327.9" font-family="Arial" font-size="14.00" fill="#000000">imf_imf_6    </text>
<text text-anchor="start" x="964.8682" y="-1327.9" font-family="Arial" font-size="14.00" fill="#666666">[numeric]</text>
<polygon fill="none" stroke="#000000" points="863,-1286.5 863,-1316.5 1191,-1316.5 1191,-1286.5 863,-1286.5"/>
<text text-anchor="start" x="870" y="-1297.9" font-family="Arial" font-size="14.00" fill="#000000">imf_imf_7    </text>
<text text-anchor="start" x="964.8682" y="-1297.9" font-family="Arial" font-size="14.00" fill="#666666">[numeric]</text>
<polygon fill="none" stroke="#000000" points="863,-1256.5 863,-1286.5 1191,-1286.5 1191,-1256.5 863,-1256.5"/>
<text text-anchor="start" x="870" y="-1267.9" font-family="Arial" font-size="14.00" fill="#000000">imf_imf_8    </text>
<text text-anchor="start" x="964.8682" y="-1267.9" font-family="Arial" font-size="14.00" fill="#666666">[numeric]</text>
<polygon fill="none" stroke="#000000" points="863,-1226.5 863,-1256.5 1191,-1256.5 1191,-1226.5 863,-1226.5"/>
<text text-anchor="start" x="870" y="-1237.9" font-family="Arial" font-size="14.00" fill="#000000">imf_ia_0    </text>
<text text-anchor="start" x="957.0996" y="-1237.9" font-family="Arial" font-size="14.00" fill="#666666">[numeric]</text>
<polygon fill="none" stroke="#000000" points="863,-1196.5 863,-1226.5 1191,-1226.5 1191,-1196.5 863,-1196.5"/>
<text text-anchor="start" x="870" y="-1207.9" font-family="Arial" font-size="14.00" fill="#000000">imf_ia_1    </text>
<text text-anchor="start" x="957.0996" y="-1207.9" font-family="Arial" font-size="14.00" fill="#666666">[numeric]</text>
<polygon fill="none" stroke="#000000" points="863,-1166.5 863,-1196.5 1191,-1196.5 1191,-1166.5 863,-1166.5"/>
<text text-anchor="start" x="870" y="-1177.9" font-family="Arial" font-size="14.00" fill="#000000">imf_ia_2    </text>
<text text-anchor="start" x="957.0996" y="-1177.9" font-family="Arial" font-size="14.00" fill="#666666">[numeric]</text>
<polygon fill="none" stroke="#000000" points="863,-1136.5 863,-1166.5 1191,-1166.5 1191,-1136.5 863,-1136.5"/>
<text text-anchor="start" x="870" y="-1147.9" font-family="Arial" font-size="14.00" fill="#000000">imf_ia_3    </text>
<text text-anchor="start" x="957.0996" y="-1147.9" font-family="Arial" font-size="14.00" fill="#666666">[numeric]</text>
<polygon fill="none" stroke="#000000" points="863,-1106.5 863,-1136.5 1191,-1136.5 1191,-1106.5 863,-1106.5"/>
<text text-anchor="start" x="870" y="-1117.9" font-family="Arial" font-size="14.00" fill="#000000">imf_ia_4    </text>
<text text-anchor="start" x="957.0996" y="-1117.9" font-family="Arial" font-size="14.00" fill="#666666">[numeric]</text>
<polygon fill="none" stroke="#000000" points="863,-1076.5 863,-1106.5 1191,-1106.5 1191,-1076.5 863,-1076.5"/>
<text text-anchor="start" x="870" y="-1087.9" font-family="Arial" font-size="14.00" fill="#000000">imf_ia_5    </text>
<text text-anchor="start" x="957.0996" y="-1087.9" font-family="Arial" font-size="14.00" fill="#666666">[numeric]</text>
<polygon fill="none" stroke="#000000" points="863,-1046.5 863,-1076.5 1191,-1076.5 1191,-1046.5 863,-1046.5"/>
<text text-anchor="start" x="870" y="-1057.9" font-family="Arial" font-size="14.00" fill="#000000">imf_ia_6    </text>
<text text-anchor="start" x="957.0996" y="-1057.9" font-family="Arial" font-size="14.00" fill="#666666">[numeric]</text>
<polygon fill="none" stroke="#000000" points="863,-1016.5 863,-1046.5 1191,-1046.5 1191,-1016.5 863,-1016.5"/>
<text text-anchor="start" x="870" y="-1027.9" font-family="Arial" font-size="14.00" fill="#000000">imf_ia_7    </text>
<text text-anchor="start" x="957.0996" y="-1027.9" font-family="Arial" font-size="14.00" fill="#666666">[numeric]</text>
<polygon fill="none" stroke="#000000" points="863,-986.5 863,-1016.5 1191,-1016.5 1191,-986.5 863,-986.5"/>
<text text-anchor="start" x="870" y="-997.9" font-family="Arial" font-size="14.00" fill="#000000">imf_ia_8    </text>
<text text-anchor="start" x="957.0996" y="-997.9" font-family="Arial" font-size="14.00" fill="#666666">[numeric]</text>
<polygon fill="none" stroke="#000000" points="863,-956.5 863,-986.5 1191,-986.5 1191,-956.5 863,-956.5"/>
<text text-anchor="start" x="870" y="-967.9" font-family="Arial" font-size="14.00" fill="#000000">imf_ip_0    </text>
<text text-anchor="start" x="957.0996" y="-967.9" font-family="Arial" font-size="14.00" fill="#666666">[numeric]</text>
<polygon fill="none" stroke="#000000" points="863,-926.5 863,-956.5 1191,-956.5 1191,-926.5 863,-926.5"/>
<text text-anchor="start" x="870" y="-937.9" font-family="Arial" font-size="14.00" fill="#000000">imf_ip_1    </text>
<text text-anchor="start" x="957.0996" y="-937.9" font-family="Arial" font-size="14.00" fill="#666666">[numeric]</text>
<polygon fill="none" stroke="#000000" points="863,-896.5 863,-926.5 1191,-926.5 1191,-896.5 863,-896.5"/>
<text text-anchor="start" x="870" y="-907.9" font-family="Arial" font-size="14.00" fill="#000000">imf_ip_2    </text>
<text text-anchor="start" x="957.0996" y="-907.9" font-family="Arial" font-size="14.00" fill="#666666">[numeric]</text>
<polygon fill="none" stroke="#000000" points="863,-866.5 863,-896.5 1191,-896.5 1191,-866.5 863,-866.5"/>
<text text-anchor="start" x="870" y="-877.9" font-family="Arial" font-size="14.00" fill="#000000">imf_ip_3    </text>
<text text-anchor="start" x="957.0996" y="-877.9" font-family="Arial" font-size="14.00" fill="#666666">[numeric]</text>
<polygon fill="none" stroke="#000000" points="863,-836.5 863,-866.5 1191,-866.5 1191,-836.5 863,-836.5"/>
<text text-anchor="start" x="870" y="-847.9" font-family="Arial" font-size="14.00" fill="#000000">imf_ip_4    </text>
<text text-anchor="start" x="957.0996" y="-847.9" font-family="Arial" font-size="14.00" fill="#666666">[numeric]</text>
<polygon fill="none" stroke="#000000" points="863,-806.5 863,-836.5 1191,-836.5 1191,-806.5 863,-806.5"/>
<text text-anchor="start" x="870" y="-817.9" font-family="Arial" font-size="14.00" fill="#000000">imf_ip_5    </text>
<text text-anchor="start" x="957.0996" y="-817.9" font-family="Arial" font-size="14.00" fill="#666666">[numeric]</text>
<polygon fill="none" stroke="#000000" points="863,-776.5 863,-806.5 1191,-806.5 1191,-776.5 863,-776.5"/>
<text text-anchor="start" x="870" y="-787.9" font-family="Arial" font-size="14.00" fill="#000000">imf_ip_6    </text>
<text text-anchor="start" x="957.0996" y="-787.9" font-family="Arial" font-size="14.00" fill="#666666">[numeric]</text>
<polygon fill="none" stroke="#000000" points="863,-746.5 863,-776.5 1191,-776.5 1191,-746.5 863,-746.5"/>
<text text-anchor="start" x="870" y="-757.9" font-family="Arial" font-size="14.00" fill="#000000">imf_ip_7    </text>
<text text-anchor="start" x="957.0996" y="-757.9" font-family="Arial" font-size="14.00" fill="#666666">[numeric]</text>
<polygon fill="none" stroke="#000000" points="863,-716.5 863,-746.5 1191,-746.5 1191,-716.5 863,-716.5"/>
<text text-anchor="start" x="870" y="-727.9" font-family="Arial" font-size="14.00" fill="#000000">imf_ip_8    </text>
<text text-anchor="start" x="957.0996" y="-727.9" font-family="Arial" font-size="14.00" fill="#666666">[numeric]</text>
<polygon fill="none" stroke="#000000" points="863,-686.5 863,-716.5 1191,-716.5 1191,-686.5 863,-686.5"/>
<text text-anchor="start" x="870" y="-697.9" font-family="Arial" font-size="14.00" fill="#000000">open    </text>
<text text-anchor="start" x="935.3352" y="-697.9" font-family="Arial" font-size="14.00" fill="#666666">[numeric]</text>
<polygon fill="none" stroke="#000000" points="863,-656.5 863,-686.5 1191,-686.5 1191,-656.5 863,-656.5"/>
<text text-anchor="start" x="870" y="-667.9" font-family="Arial" font-size="14.00" fill="#000000">high    </text>
<text text-anchor="start" x="930.6592" y="-667.9" font-family="Arial" font-size="14.00" fill="#666666">[numeric]</text>
<polygon fill="none" stroke="#000000" points="863,-626.5 863,-656.5 1191,-656.5 1191,-626.5 863,-626.5"/>
<text text-anchor="start" x="870" y="-637.9" font-family="Arial" font-size="14.00" fill="#000000">low    </text>
<text text-anchor="start" x="925.2006" y="-637.9" font-family="Arial" font-size="14.00" fill="#666666">[numeric]</text>
<polygon fill="none" stroke="#000000" points="863,-596.5 863,-626.5 1191,-626.5 1191,-596.5 863,-596.5"/>
<text text-anchor="start" x="870" y="-607.9" font-family="Arial" font-size="14.00" fill="#000000">close    </text>
<text text-anchor="start" x="936.8766" y="-607.9" font-family="Arial" font-size="14.00" fill="#666666">[numeric]</text>
<polygon fill="none" stroke="#000000" points="863,-566.5 863,-596.5 1191,-596.5 1191,-566.5 863,-566.5"/>
<text text-anchor="start" x="870" y="-577.9" font-family="Arial" font-size="14.00" fill="#000000">ask    </text>
<text text-anchor="start" x="925.9874" y="-577.9" font-family="Arial" font-size="14.00" fill="#666666">[numeric]</text>
<polygon fill="none" stroke="#000000" points="863,-536.5 863,-566.5 1191,-566.5 1191,-536.5 863,-536.5"/>
<text text-anchor="start" x="870" y="-547.9" font-family="Arial" font-size="14.00" fill="#000000">bid    </text>
<text text-anchor="start" x="922.8766" y="-547.9" font-family="Arial" font-size="14.00" fill="#666666">[numeric]</text>
<polygon fill="none" stroke="#000000" points="863,-506.5 863,-536.5 1191,-536.5 1191,-506.5 863,-506.5"/>
<text text-anchor="start" x="870" y="-517.9" font-family="Arial" font-size="14.00" fill="#000000">last    </text>
<text text-anchor="start" x="925.9846" y="-517.9" font-family="Arial" font-size="14.00" fill="#666666">[numeric]</text>
</g>
<!-- public.features_202406&#45;&gt;public.instrument -->
<g id="edge5" class="edge">
<title>public.features_202406:instrument&#45;&gt;public.instrument:id</title>
<path fill="none" stroke="#000000" d="M854.9112,-1655.3208C798.4338,-1564.8924 820.7275,-511.6109 863,-464 952.7464,-362.9199 1075.2536,-529.0801 1165,-428 1192.5904,-396.9253 1206.5556,-334.5 1165,-334.5"/>
<polygon fill="#000000" stroke="#000000" points="855.0534,-1655.4294 860.2682,-1665.076 859.0267,-1658.4647 863,-1661.5 863,-1661.5 863,-1661.5 859.0267,-1658.4647 865.7318,-1657.924 855.0534,-1655.4294 855.0534,-1655.4294"/>
<text text-anchor="start" x="597.279" y="-1671.5" font-family="Arial" font-size="10.00" fill="#000000">FOREIGN KEY (instrument) REFERENCES instrument(id)</text>
</g>
</g>
</svg>
